<svg xmlns="http://www.w3.org/2000/svg" width="2836" height="2836"><path fill="#221f20" d="M1513.293 44.328c28.148 23.78 44.079 57.532 47.496 93.984 3.184 40.571-9.466 78.58-35.476 109.688-16.014 18.632-37.326 31.233-60.688 38.375l-2.485.76c-5.54 1.608-10.185 2.203-16.14 2.865v373h135l-8.297-33.047c-1.395-7.414-2.715-14.73-3.687-22.195l-.38-2.908c-.915-7.189-1.684-14.387-2.386-21.6l-.311-3.099c-5.008-51.341 3.694-95.927 36.57-136.038 29.467-35.547 62.912-67.706 96.616-99.176l2.137-1.996c25.68-23.967 51.525-47.781 78.082-70.776 3.683-3.195 7.352-6.408 11.02-9.619a697 697 0 0 1 10.28-8.8c1.587-1.342 3.157-2.701 4.722-4.069a224 224 0 0 1 5.715-4.832c2.462-2.195 4.3-3.968 5.919-6.845.307-7.025-2.293-13.781-5.125-20.125l-.915-2.15a407 407 0 0 0-5.058-11.252c-12.387-26.77-14.503-56.667-7.902-85.473l.472-2.107c8.346-35.691 32.666-66.14 63.41-85.373 34.503-20.689 76.592-27.055 115.65-17.454 21.874 5.822 40.817 16.7 57.468 31.934l2.453 2.238c25.251 24.148 42.39 61.837 43.547 96.762l.121 3.398c.697 39.122-14.472 74.386-41.121 102.602l-2.258 2.453c-25.34 26.595-60.851 39.6-96.91 41.734-24.774.547-50.81-6.025-71.965-18.964-3.719-1.586-4.994-1.445-8.867-.223-2.996 2.27-5.565 4.923-8.19 7.606l-2.421 2.414c-2.64 2.64-5.263 5.296-7.885 7.953q-2.752 2.762-5.507 5.52-5.775 5.792-11.527 11.604a6146 6146 0 0 1-16.196 16.292 13969 13969 0 0 0-15.346 15.424 5808 5808 0 0 0-7.61 7.676l-2.246 2.26c-3.248 3.287-6.367 6.582-9.303 10.152-4.278 4.945-9.426 8.798-14.572 12.785-18.68 14.525-36.545 29.988-54.072 45.876l-2.308 2.088c-39.654 35.968-68.05 68.692-70.901 123.86-.567 13.375-.185 26.69.522 40.052l.146 2.859c1.278 24.347 3.72 48.481 7.416 72.579 15.483.244 30.964.395 46.449.438 7.191.022 14.38.073 21.572.196q9.413.164 18.827.14c3.317-.006 6.629.022 9.946.103 17.242.55 17.242.55 31.902-7.464 2.72-2.717 5.246-5.538 7.686-8.51 2.3-2.706 4.852-4.944 7.536-7.266 7.558-6.9 14.758-14.163 21.984-21.408q3.632-3.638 7.272-7.266l4.69-4.693 2.162-2.157a226 226 0 0 0 11.472-12.391c2.057-2.358 4.261-4.54 6.502-6.722a181 181 0 0 0 10.355-11.137c2.159-2.445 4.475-4.706 6.802-6.989 1.777-1.807 3.438-3.668 5.09-5.589 3.667-4.218 7.47-8.292 11.316-12.348l6.347-6.718c3.79-4.025 7.553-8.076 11.309-12.133a268 268 0 0 1 8.246-8.516 115 115 0 0 0 6.657-7.185c4.278-4.916 8.856-9.507 13.468-14.108l2.737-2.74q2.852-2.852 5.706-5.7a4239 4239 0 0 0 7.244-7.248q3.498-3.502 7-7l2.593-2.598c4.344-4.327 8.747-8.516 13.406-12.505 2.753-2.373 5.386-4.874 8.037-7.361 4.885-4.55 9.917-8.84 15.113-13.035 7.718-6 7.718-6 13.887-13.465 1.889-2.939 2.46-3.487 5.687-4.625 2.857-.206 5.618-.3 8.476-.302l2.638-.025c2.95-.026 5.898-.038 8.848-.05q3.213-.024 6.426-.05c5.95-.045 11.9-.079 17.85-.11 6.479-.037 12.957-.084 19.436-.13q17.267-.12 34.535-.22 19.205-.114 38.41-.24l2.506-.017 10.133-.067c36.984-.245 73.969-.47 110.953-.686l2.802-.017 5.609-.032q21.15-.125 42.3-.254c162.884-1 162.884-1 242.078-.8l.396-1.836.53-2.428.52-2.398c5.789-24.436 21.265-46.645 38.554-64.338l2.008-2.16c14.511-15.27 33.362-25.703 52.992-32.84 1.097-.4 2.194-.8 3.324-1.21 35.468-11.838 76.427-7.312 109.718 9.186 31.753 16.616 55.722 44.535 67.184 78.504 8.006 26.053 10.647 56.863 3.774 83.52l-.57 2.328c-8.805 35.144-29.28 64.336-59.742 83.86-33.783 19.95-73.473 26.884-111.813 17.687-24.864-6.427-46.262-19.314-64.875-36.875l-2.387-2.156c-15.106-14.206-25.906-32.818-34.05-51.719l-1.002-2.304c-1.656-3.998-2.852-7.85-3.663-12.107l-.518-2.687L2552 480l-1.826.017q-30.962.279-61.924.506l-2.518.02c-54.535.405-109.063.474-163.598.3q-21.576-.067-43.152-.097l-3.1-.004q-13.99-.021-27.98-.039l-18.707-.024-3.127-.005c-17.08-.026-34.16-.104-51.24-.195a8785 8785 0 0 0-53.617-.119c-10.87.007-21.738-.03-32.607-.126-7.356-.062-14.711-.068-22.068-.03-4.22.019-8.438.015-12.659-.056-19.553-.919-19.553-.919-36.615 7.104-2.499 2.52-4.734 5.142-6.867 7.976-2.023 2.57-4.335 4.542-6.832 6.647-3.877 3.454-7.551 7.061-11.165 10.79-1.92 1.87-3.863 3.602-5.9 5.34-5.182 4.524-10.02 9.373-14.877 14.241l-2.942 2.94a5737 5737 0 0 0-6.124 6.129q-3.892 3.899-7.793 7.789-3.033 3.028-6.061 6.061a4167 4167 0 0 1-4.252 4.247c-3.73 3.743-7.416 7.478-10.853 11.492-4.828 5.617-10.134 10.778-15.373 16.006l-3.41 3.413a7743 7743 0 0 1-7.118 7.113q-4.535 4.528-9.06 9.064a7504 7504 0 0 1-7.035 7.034l-3.338 3.34c-5.408 5.417-10.817 10.782-16.655 15.742-2.406 2.072-4.629 4.31-6.857 6.571l-2.453 2.481L1860 644l-1.815 1.693c-2.814 2.971-5.094 6.209-7.435 9.557l-1.39 1.969A1633 1633 0 0 0 1846 662l1.894.007q22.956.09 45.912.229c7.401.044 14.803.084 22.204.11q9.693.035 19.385.103 5.118.037 10.235.049c19.243.049 38.5.532 57.058 6.19l2.596.77c25.505 7.863 49.378 22.237 68.716 40.542a589 589 0 0 0 4 3.437c8.54 7.476 15.989 15.654 23 24.563l2.328 2.848c41.22 51.524 48.812 110.092 48.84 173.754l.012 6.643q.013 8.853.008 17.706 0 5.569.002 11.138c.004 34.129-.36 68.23-1.19 102.348-.708 29.143-1.202 58.265-1.188 87.416q0 3.78-.002 7.562c-.004 21.213.391 42.387 1.19 63.585 1.093-.61 2.187-1.22 3.313-1.85l1.864-1.04c8.142-4.958 14.788-12.959 20.612-20.36 2.985-3.713 6.208-7.178 9.461-10.656a92 92 0 0 0 4.484-5.298c6.608-8.385 14.032-15.832 21.605-23.34q3.34-3.317 6.667-6.647 2.154-2.148 4.31-4.293l1.977-1.974c3.165-3.133 6.376-6.161 9.746-9.074 3.849-3.329 7.452-6.846 11.024-10.468l1.926-1.938q3.008-3.028 6.011-6.062c14.937-15.09 14.937-15.09 20.996-20.219 4.891-4.347 9.408-9.125 14.004-13.781 11.572-11.722 11.572-11.722 15.875-15.375 6.41-5.47 12.203-11.638 18.125-17.625 13.962-14.115 13.962-14.115 20.082-19.313 4.18-3.676 8.055-7.681 11.98-11.625l2.604-2.591c3.709-3.715 7.363-7.433 10.783-11.416 4.073-4.736 8.459-9.149 12.874-13.564q2.122-2.129 4.232-4.27c5.467-5.479 11.078-10.532 17.178-15.3 2.831-2.4 4.49-4.69 6.267-7.921 2.845-2.845 12.377-1.245 16.5-1.25l2.465-.007c18.893-.02 37.727 1.046 56.58 2.19 18.89 1.126 37.966 2.172 56.83.13l2.8-.264c4.564-.341 4.564-.341 8.825-1.799 2.854-5.96 4.382-12.407 5.875-18.813 6.2-26.031 24.017-48.255 45.125-64.187l2.316-1.758c17.962-13.068 37.918-22.574 59.684-27.242l3.086-.68c35.984-6.486 74.582 2.201 104.64 22.866 19.642 14.06 35.314 32.317 46.274 53.814l1.019 1.993c16.981 33.93 19.41 72.96 7.981 109.007-1.967 5.508-4.407 10.763-7 16l-.934 1.933c-6.671 13.71-15.615 24.983-26.066 36.067l-2.035 2.23c-23.975 25.32-58.665 38.16-92.965 39.77-40.115 1.086-77.903-13.496-107-41l-2.457-2.262c-16.884-16.086-27.7-36.638-34.543-58.738l-1.156-3.672c-.759-2.992-.914-5.279-.844-8.328l-1.952.209c-8.84.848-17.638.982-26.51 1.051q-4.12.034-8.24.077c-5.849.06-11.698.111-17.548.163q-10.126.09-20.253.192c-3.46.034-6.92.06-10.381.087-2.5.03-4.998.091-7.498.156-3.777.08-7.5-.015-11.272-.22-10.776-.38-19.06.095-27.328 7.508-2.935 2.79-5.71 5.705-8.487 8.65q-2.372 2.385-4.76 4.755c-4.27 4.269-8.467 8.604-12.654 12.955-4.408 4.558-8.884 9.049-13.353 13.548a3371 3371 0 0 0-22.349 22.774 4656 4656 0 0 1-22.916 23.408l-1.434 1.454q-4.269 4.328-8.54 8.654c-11.2 11.349-22.393 22.706-33.535 34.112l-2.486 2.544a7789 7789 0 0 0-11.495 11.782l-4.058 4.156-1.79 1.846c-3.62 3.699-7.394 7.142-11.312 10.524-2.385 2.083-4.644 4.272-6.89 6.503l-2.775 2.748-2.959 2.946-3.18 3.156a8598 8598 0 0 0-10.346 10.29l-3.577 3.56q-7.438 7.405-14.868 14.817-10.612 10.59-21.255 21.148a6307 6307 0 0 0-14.987 14.923q-4.458 4.457-8.938 8.891a1580 1580 0 0 0-8.39 8.365 497 497 0 0 1-3.078 3.052c-8.753 8.612-12.36 15.43-12.672 27.839-.04 7.144.391 14.143 1.066 21.252.85 9.496 1.175 18.865.926 28.396l-.051 2.6-.07 2.28c.025 2.099.025 2.099 2.195 3.849 3.503 1.266 6.984 1.124 10.677 1.123l2.04.004q3.399.002 6.798-.007 2.455 0 4.91.003 6.759.002 13.518-.007 7.285-.005 14.569-.002 12.624 0 25.249-.008 18.253-.011 36.505-.012 29.613-.004 59.225-.019 28.77-.014 57.54-.02h3.58l17.786-.005q73.802-.016 147.603-.05l.764-2.702q1.425-5.025 2.865-10.045.617-2.16 1.229-4.325c5.998-21.222 15.862-37.987 31.142-53.928l2.258-2.45c24.196-25.434 60.087-39.748 94.949-40.753 39.172-.55 76.356 11.59 104.824 39.226 28.02 27.857 43.08 64.012 43.344 103.477-.24 35.866-12.458 68.767-36.375 95.5l-2.09 2.492c-20.879 24.68-53.857 39.654-85.594 43.325-42.114 3.33-81.376-8.133-113.723-35.435-22.063-19.142-37.739-45.727-43.593-74.382v-3h-404c-3.695 54.858-3.695 54.858 19.145 94.668q1.643 1.633 3.284 3.27c2.864 2.85 5.743 5.686 8.626 8.519a1946 1946 0 0 1 6.99 6.929 5138 5138 0 0 0 10.002 9.92q2.264 2.237 4.534 4.468l2.592 2.553a168 168 0 0 0 6.382 5.723c5.941 5.166 11.425 10.807 16.976 16.384l3.748 3.752q4.016 4.02 8.027 8.045 6.353 6.371 12.712 12.736 14.64 14.66 29.273 29.33 13.42 13.45 26.845 26.893 6.313 6.32 12.618 12.646 3.932 3.943 7.868 7.88 1.816 1.82 3.628 3.64c5.493 5.517 10.988 10.956 16.912 16.018 3.49 3.087 6.682 6.47 9.912 9.824l4.746 4.894 2.507 2.588c5.354 5.514 10.747 10.991 16.133 16.475a2172 2172 0 0 1 14.09 14.472c4.54 4.71 9.118 9.38 13.722 14.03a479 479 0 0 1 5.174 5.345c11.447 12.514 11.447 12.514 27.083 17.115q2.127-.007 4.252-.076c2.357-.044 4.66.079 7.012.242 11.837.82 23.675.85 35.535.815l5.564-.005q7.21-.006 14.42-.024 7.402-.014 14.805-.02 14.442-.016 28.883-.049l.18-1.82.25-2.416.241-2.383c.522-3.779 1.652-7.284 2.892-10.881l.8-2.34c12.715-36.113 38.297-65.396 72.76-82.195 34.473-16.293 75.408-17.89 111.39-5.454 34.623 12.668 62.491 37.182 78.487 70.489 8.448 18.34 13.585 38.754 14 59l.117 2.512c1.038 37.638-12.797 74.441-38.518 101.865-25.409 26.322-61.974 41.63-98.431 42.826-38.007.596-73.06-11.257-101.168-37.203l-1.628-1.479c-9.276-8.508-16.55-17.968-23.372-28.521l-1.167-1.784c-8.488-13.167-13.518-28.245-17.833-43.216-22.178-.642-44.357-1.091-66.542-1.406q-7.537-.109-15.072-.234l-8.472-.137-2.089-.034c-7.899-.126-15.795-.21-23.695-.196-3.743.004-7.485-.02-11.228-.048q-2.49-.008-4.98.029c-12.161.176-12.161.176-16.562-2.699-2.006-1.988-3.656-4.029-5.36-6.275a102 102 0 0 0-3.875-3.375c-4.03-3.46-7.734-7.196-11.437-11a130 130 0 0 0-6.33-5.772c-4.437-3.87-8.612-7.963-12.768-12.13l-2.337-2.334a4557 4557 0 0 1-4.853-4.858 4369 4369 0 0 0-7.379-7.373l-4.744-4.748-2.2-2.194a237 237 0 0 1-11.55-12.467c-1.814-2.077-3.716-4.036-5.683-5.968l-2.16-2.136-2.184-2.145c-4.83-4.744-9.48-9.541-13.896-14.674-2.257-2.57-4.657-4.937-7.104-7.326a180 180 0 0 1-10.691-11.473c-2.179-2.441-4.481-4.727-6.809-7.027-2.931-2.896-5.764-5.802-8.437-8.938-3.67-4.293-7.682-8.213-11.72-12.156-2.15-2.144-4.145-4.384-6.124-6.687-4.016-4.638-8.347-8.92-12.719-13.219-8.568-8.425-8.568-8.425-12.223-12.715-4.838-5.627-10.147-10.804-15.401-16.04q-2.714-2.707-5.417-5.423c-5.29-5.292-10.58-10.506-16.28-15.36-2.7-2.35-5.182-4.901-7.679-7.462-3.814-3.861-7.666-7.583-11.816-11.086a141 141 0 0 1-5.211-4.828l-1.67-1.6a246 246 0 0 1-3.209-3.136c-3.19-3.041-6.34-5.1-10.315-7.03l-2.716-1.327L2150 1586l.003 2.36a177519 177519 0 0 1 .164 158.619c.013 17.879.037 35.758.064 53.636q.043 27.534.051 55.068.005 16.98.042 33.959.023 11.655.017 23.311c-.002 4.478 0 8.956.017 13.433q.02 6.165.005 12.33-.003 2.216.012 4.43c.083 13.741-1.91 26.882-6.375 39.916l-.896 2.633c-12.279 34.758-35.623 69.81-64.116 93.621a102 102 0 0 0-4.07 3.649c-20.14 18.974-46.174 34.826-72.793 42.535l-2.407.7c-12.03 3.23-24.227 4.102-36.63 4.027h-3.937c-3.51.002-7.02-.01-10.528-.024-3.688-.013-7.375-.014-11.063-.016-6.959-.006-13.917-.023-20.876-.043-7.933-.022-15.865-.033-23.798-.043q-24.442-.032-48.886-.101c1.503 4.006 3.106 6.507 6.063 9.625 3.239 3.493 6.331 7.034 9.312 10.75 4.158 5.14 8.561 9.993 13.055 14.836a281 281 0 0 1 6.32 7.101c2.677 3.092 5.506 5.968 8.425 8.83 1.686 1.717 3.241 3.482 4.794 5.319 5.067 5.822 10.567 11.219 16.027 16.668l3.477 3.48q3.628 3.63 7.26 7.254 4.625 4.618 9.242 9.246 3.583 3.588 7.173 7.173 1.703 1.702 3.405 3.407c5.454 5.463 10.901 10.887 16.797 15.881 2.87 2.487 5.497 5.215 8.15 7.93 4.092 4.144 8.234 8.123 12.676 11.895 2.032 1.788 3.925 3.676 5.824 5.605 3.061 3.102 6.231 5.981 9.535 8.82 3.385 2.993 6.67 6.089 9.965 9.18 15.793 16.196 15.793 16.196 36.56 22.234l2.088.003c2.304 0 4.608-.013 6.912-.026l4.993-.004q5.406-.005 10.812-.026c5.8-.023 11.6-.031 17.4-.038q12.48-.016 24.96-.05c20.733-.052 41.467-.07 62.201-.086l9.881-.01c36.562-.032 73.118.122 109.678.467q17.334.161 34.667.31c1.228.01 2.455.02 3.72.032 28.021.24 56.043.319 84.066.319h3.473c47.033-.007 94.06-.464 141.089-1.125l.42-3.706c3.818-30.401 25.035-60.587 48.643-79.232 31.923-24.391 70.974-35.333 110.968-30.242 36.906 5.49 70.72 25.25 93.242 55.203 22.603 31.86 32.74 69.993 26.54 108.977a201 201 0 0 1-1.813 9l-.504 2.262c-5.511 23.755-16.935 44.896-33.496 62.738l-1.61 1.742c-25.093 26.852-58.948 43.207-95.906 44.461-18.423.305-36.064-2.14-53.484-8.203l-3.754-1.305c-15.438-5.795-29.723-13.96-42.246-24.695l-1.635-1.398c-23.236-20.115-39.724-46.75-47.365-76.602v-3l-2.52.001a601132 601132 0 0 1-168.28.054h-3.673a194789 194789 0 0 0-68.425.026l-3.53.002q-10.55.005-21.099.014c-23.105.02-46.209.01-69.314-.105q-13.474-.064-26.949-.11l-6.595-.026c-27.74-.105-55.37.298-83.078 1.614-99.847 4.707-99.847 4.707-130.597-22.78-9.32-8.669-17.379-18.291-25.131-28.358-5.3-6.85-11.034-13.284-16.814-19.73-9.843-10.987-19.377-22.173-28.507-33.761-3.252-4.088-6.387-7.92-10.406-11.272-4.889-4.077-8.806-8.943-12.846-13.83-14.518-17.517-29.699-34.44-45.173-51.114l-2.022-2.182c-31.543-33.965-60.979-65.15-109.535-67.255-8.235-.253-16.417.114-24.631.687l-2.035.138A378 378 0 0 0 1640 2130c-6.884 22.914-10.956 45.95-13.25 69.75l-.27 2.721c-4.456 46.258 4.94 86.03 34.513 122.125 26.884 32.46 57.211 61.96 87.779 90.905q2.974 2.819 5.945 5.639c27.516 26.11 55.412 51.8 83.941 76.803q2.37 2.08 4.737 4.164c2.874 2.528 5.765 5.038 8.658 7.544l2.548 2.24 2.35 2.017 2.019 1.75c2.37 1.567 4.217 2.032 7.03 2.342 2.22-.659 2.22-.659 4.344-1.879l2.494-1.285 2.662-1.399c33.393-16.64 71.906-18.88 107.29-7.214 17.55 6.171 33.257 15.491 47.21 27.777l2.8 2.398c6.483 5.685 11.97 11.758 17.2 18.602l2.02 2.578c22.802 30.043 32.694 67.665 27.628 105.018-4.732 30.337-18.853 57.954-39.648 80.404l-2.68 2.93c-17.069 17.88-39.377 30.193-63.32 36.07l-2.123.53c-35.742 8.474-75.817.542-107.111-18.097-33.45-20.673-57.622-51.305-66.766-89.859-7.107-31.777-3.505-66.974 12.016-95.725 1.56-2.932 2.998-5.91 4.422-8.912l1.433-2.972c1.304-3.424 1.967-6.3 2.129-9.965-1.822-3.648-3.942-6.11-7.024-8.745l-2.488-2.149-2.732-2.326-4.42-3.816q-2.4-2.07-4.8-4.134c-32.917-28.347-64.985-57.629-96.611-87.404l-4.22-3.97c-127.797-120.157-127.797-120.157-131.084-197.17-.347-12.71.493-25.271 1.754-37.911l.3-3.103c.701-7.11 1.519-14.198 2.441-21.282l.349-2.683c2.416-17.863 7.132-34.7 11.535-52.307h-135v412l9 3q3.115 1.25 6.188 2.602l3.34 1.47c33.24 14.865 33.24 14.865 47.472 26.928l1.542 1.288c28.172 23.735 43.994 58.977 47.28 95.285 2.732 37.11-8.06 75.447-32.232 104.098-3.098 3.54-6.328 6.94-9.59 10.329l-1.723 1.914c-18.189 19.632-45.61 30.627-71.277 36.086l-3.133.687c-35.841 6.468-73.603-1.937-103.52-22.425-8.469-5.988-16.11-12.835-23.347-20.262l-1.652-1.48c-24.148-22.37-37.329-59.12-38.57-91.426-.941-38.954 12.228-74.607 38.327-103.418 10.434-10.89 22.964-19.077 35.895-26.676l1.786-1.054C1380.934 2542 1380.934 2542 1391 2542v-412h-135l8.297 33.047c1.395 7.414 2.715 14.73 3.687 22.196l.38 2.908c.915 7.188 1.684 14.387 2.386 21.599l.31 3.098c5.003 51.347-3.74 95.934-36.539 136.099-29.422 35.624-62.852 67.817-96.521 99.365l-2.134 2.002c-25.642 24.04-51.486 47.875-77.986 70.968q-2.812 2.452-5.62 4.908c-5.197 4.544-10.4 9.08-15.66 13.553a693 693 0 0 0-4.72 4.071 377 377 0 0 1-5.703 4.858c-4.354 3.618-4.354 3.618-6.742 8.556-.098 7.12 3.018 13.278 6.624 19.229 4.5 7.45 7.936 14.576 10.316 22.98l.685 2.414c3.74 14.12 5.504 27.89 5.378 42.461l-.01 2.304c-.19 29.441-8.933 57.158-27.428 80.384l-1.23 1.554c-14.364 18.002-31.9 32.044-52.894 41.592a324 324 0 0 0-5.321 2.499c-13.065 5.986-27.312 9.567-41.555 11.355l-2.645.336c-34.412 3.728-70.047-4.801-97.542-26.211A354 354 0 0 1 809 2754l-2.855-2.418c-27.822-24.081-45.954-61.867-49-98.457-1.717-25.16 2.868-49.436 13.855-72.125l.954-1.97c6.489-13.19 14.94-24.355 25.046-35.03l2.484-2.68c17.386-18.157 39.26-29.803 63.141-37.07l1.95-.603c11.557-3.351 23.2-4.024 35.175-3.96l2.132.006c10.662.046 20.753.607 31.118 3.307l2.043.504c11.946 2.98 24.323 7.223 34.878 13.67 2.78 1.105 4.219.637 7.079-.174 2.088-1.314 2.088-1.314 4.033-3.074l2.34-2.004 2.536-2.226 2.72-2.353q3.737-3.242 7.452-6.51 2.381-2.092 4.767-4.18c28.543-24.996 56.407-50.732 83.929-76.844q2.953-2.8 5.908-5.596c86.033-77.335 86.033-77.335 121.028-183.04.196-10.341-.515-20.575-1.525-30.86l-.263-2.76c-2.237-23.03-6.35-45.363-12.925-67.553a2184 2184 0 0 0-45.643-.904c-7.07-.068-14.134-.182-21.201-.41-34.11-2.805-34.11-2.805-64.17 9.392-4.616 4.437-8.411 9.421-11.76 14.865-1.903 2.614-3.484 4.252-5.912 6.302-4.029 3.471-7.814 7.12-11.562 10.89l-2.07 2.07q-3.4 3.401-6.793 6.809l-4.9 4.905q-5.262 5.265-10.518 10.535a29569 29569 0 0 1-16.643 16.667q-11.673 11.684-23.342 23.373l-1.494 1.496-23.97 24.01q-12.33 12.352-24.666 24.698a29885 29885 0 0 0-16.532 16.56q-5.146 5.157-10.296 10.31l-4.76 4.77a5190 5190 0 0 1-6.52 6.527l-1.882 1.893a177 177 0 0 1-11.627 10.59c-2.342 2.226-3.784 4.667-5.364 7.464-6.786 11.86-16.6 21.966-29.375 27.188-11.914 2.98-24.947 1.866-37.106 1.552-4.994-.11-9.988-.123-14.983-.144q-11.203-.059-22.405-.214c-14.14-.198-28.272-.207-42.412-.129l-3.278.018q-6.63.034-13.26.071c-12.666.07-25.333.091-38 .112l-18.008.031q-18.865.033-37.73.074-33.607.07-67.216.132-32.534.059-65.068.125l-2.046.004-20.355.041q-84.567.171-169.133.327a1874 1874 0 0 0-1.916 3.793l-1.078 2.133c-1.366 2.816-2.454 5.696-3.522 8.636l-1.34 3.641-.689 1.881c-6.198 16.838-12.645 32.192-24.455 45.916l-1.423 1.66c-19.447 22.426-44.519 37.957-73.577 44.34l-3.29.742c-18.063 3.272-37.877 2.46-55.71-1.742l-2.21-.504C87.39 2475.853 62.955 2460.986 42 2441l-2.59-2.395c-23.493-22.38-38.652-55.241-39.613-87.75-.575-41.53 14.513-79.119 43.199-109.254 25.433-25.932 60.361-40.304 96.638-40.842 41.327-.132 78.604 14.379 108.366 43.241 17.004 17.259 36 46.904 36 72l1.751-.206c9.286-.976 18.56-1.04 27.886-1.146l5.609-.071c6.147-.076 12.294-.14 18.442-.202l3.238-.033c62.095-.637 124.165.205 186.253 1.106l23.535.34 2.365.034q13.736.199 27.473.414c57.124.901 114.22 1.16 171.346.074 5.71-.108 11.422-.196 17.133-.281 4.505-.07 9.01-.153 13.514-.24q3.168-.058 6.336-.101c2.899-.041 5.797-.1 8.695-.164l2.55-.024c6.662-.176 13.359-1.315 18.241-6.284l1.629-1.62 1.664-1.733 1.799-1.813a857 857 0 0 0 5.604-5.738q1.878-1.903 3.76-3.802c6.854-6.954 6.854-6.954 13.378-14.217 3.77-4.32 7.758-8.38 11.826-12.418l2.334-2.33 4.98-4.962q3.952-3.933 7.897-7.872 9.087-9.068 18.184-18.128a28154 28154 0 0 0 18.012-17.96q3.875-3.865 7.755-7.725l4.784-4.773 2.157-2.142a224 224 0 0 0 11.221-12.107c2.449-2.786 5.045-5.405 7.676-8.017l1.688-1.688q2.716-2.713 5.437-5.421 1.903-1.9 3.804-3.8 4.971-4.964 9.948-9.922 5.09-5.076 10.176-10.157 9.956-9.94 19.92-19.871l-2.04-.007q-24.695-.089-49.39-.229c-7.962-.044-15.924-.084-23.886-.11q-10.422-.035-20.846-.103-5.506-.037-11.013-.049c-58.756-.114-100.91-23.319-142-64.494-5.32-5.4-10.247-10.96-14.825-17.008l-1.258-1.633c-30.053-39.091-42.271-78.356-42.09-127.346.013-4.453.008-8.906.006-13.359q-.001-11.541.025-23.082c.024-11.124.032-22.248.036-33.372q.01-27.08.055-54.159.041-26.288.061-52.575l.003-3.28.011-16.29c.031-44.968.084-89.936.151-134.904-5.806-.169-8.519 1.019-12.761 5.009a399 399 0 0 0-5.385 5.558q-1.507 1.542-3.016 3.081a1043 1043 0 0 0-6.52 6.724 1982 1982 0 0 1-10.617 10.938q-6.73 6.9-13.44 13.818a5379 5379 0 0 1-26.53 27.14l-10.556 10.735a28169 28169 0 0 0-26.177 26.656c-11.784 12.018-23.509 24.093-35.215 36.188a4487 4487 0 0 1-36.356 37.11c-6.831 6.9-13.623 13.831-20.329 20.854-46.916 49.083-46.916 49.083-67.524 50.212-6.286-.019-12.29-.918-18.414-2.264-6.89-1.43-13.86-.779-20.844-.443-2.623.062-5.246.095-7.87.128l-3.91.059-3.973.06q-2.08.03-4.161.064c-23.135.355-46.265.507-69.402.373l-.56 2.799c-7.437 36.117-30.187 66.674-60.44 87.201-15.993 10.511-34.303 17.197-53 21l-3.148.68c-35.792 6.45-73.365-2.038-103.343-22.263C31.606 1908.11 10.024 1874.215 3 1836c-6.021-37.471 3.37-76.787 25.492-107.548C51.894 1697.19 85.047 1675.62 124 1670c38.162-4.795 75.151 3.87 105.895 27.33 15.466 12.276 27.728 26.96 38.105 43.67l1.147 1.82C287 1771.49 287 1771.49 287 1784c15.866 4.924 31.792 7.947 48.313 9.687l3.776.4c32.71 3.022 59.055-4.153 84.489-25.187 22.67-19.094 43.345-40.434 63.672-61.963l2.633-2.785c19.937-21.11 39.528-42.525 58.574-64.444 9.827-11.276 9.827-11.276 15.536-15.994 4.681-3.998 8.934-8.494 13.285-12.847l3.344-3.333q4.51-4.498 9.011-9 2.82-2.819 5.641-5.635 9.857-9.843 19.706-19.694a19312 19312 0 0 1 18.33-18.304q7.896-7.875 15.781-15.763a7657 7657 0 0 1 9.407-9.394q4.426-4.412 8.84-8.837 1.614-1.616 3.234-3.227c11.798-10.663 11.798-10.663 16.2-25.106.012-.693.022-1.387.033-2.102.028-2.262.014-4.522 0-6.785q.017-2.37.041-4.74c.036-4.137.037-8.273.03-12.41-.001-4.23.032-8.46.062-12.69.053-8.282.07-16.564.062-24.847-4.466-1.712-8.166-2.253-12.938-2.262l-2.053-.012c-2.267-.01-4.535-.008-6.802-.004q-2.465-.008-4.928-.018-6.77-.022-13.539-.02c-4.867-.004-9.734-.02-14.601-.033q-12.648-.034-25.296-.048c-12.192-.014-24.383-.04-36.574-.068q-29.67-.067-59.338-.113-28.823-.045-57.644-.105l-3.589-.007-17.823-.037q-73.937-.155-147.875-.273l-.193 2.501-.262 3.279-.255 3.25c-2.137 21.896-17.583 40.743-32.29 55.97l-2.543 2.734c-23.476 24.578-56.497 44.191-91.05 45.39-33.736.758-33.736.758-49.407-3.124l-2.456-.602C93.57 1532.353 82.785 1527.997 72 1522l-2.86-1.563c-6.21-3.548-11.694-7.816-17.14-12.437l-2.5-2.09c-26.45-22.855-41.842-57.934-45.321-92.369-2.68-38.096 4.525-79.127 29.766-109.182L36 1302l2.117-2.484C60.977 1273.32 92.565 1258.483 127 1255a243 243 0 0 1 8.172-.238l2.292-.03c15.881-.163 31.173-.281 46.536 4.268l1.999.551c19.888 5.54 37.184 16.206 52.001 30.449l2.898 2.707c20.692 19.669 35.768 47.358 45.11 74.188L287 1369c3.273 1.091 5.661 1.126 9.107 1.127l3.88.009 4.273-.007 4.497.006q6.143.005 12.284 0c4.344-.003 8.688 0 13.032 0q11.036.003 22.071-.005 11.14-.007 22.28 0c35.952.024 71.892.006 107.838-.7 30.702-.597 61.403-.582 92.11-.559q9.516.006 19.033-.003 10.558-.007 21.118-.002 4.38.001 8.762-.002c18.93-.016 37.803.349 56.715 1.136l.2-2.676.267-3.526.262-3.488c.221-2.704.485-5.39.806-8.083 1.178-10.053 1.697-20.073 1.764-30.19.013-1.98.04-3.958.066-5.937l-.002-3.788.01-3.324c-.82-11.826-3.953-19.051-12.49-27.257q-1.42-1.416-2.83-2.839a747 747 0 0 0-7.68-7.567c-2.704-2.644-5.38-5.316-8.057-7.985a2749 2749 0 0 0-13.546-13.38 4452 4452 0 0 1-19.035-18.813 6957 6957 0 0 0-25.564-25.272q-2.028-1.995-4.053-3.993c-3.526-3.458-7.05-6.867-10.813-10.066-6.659-5.748-12.744-12.133-18.948-18.36l-4.427-4.433q-4.75-4.755-9.496-9.514-7.511-7.53-15.03-15.054a111769 111769 0 0 1-34.615-34.67 92803 92803 0 0 0-31.738-31.787q-7.465-7.475-14.926-14.955-4.648-4.659-9.3-9.313-2.149-2.151-4.295-4.306c-9.153-9.187-9.153-9.187-18.819-17.824-1.965-1.837-3.57-3.819-5.237-5.929-6.563-8.077-12.242-13.435-22.885-14.603-6.104-.322-12.171-.277-18.28-.166q-3.966-.02-7.932-.061a983 983 0 0 0-18.602.044c-7.072.07-14.143.041-21.215.006-14.52-.07-29.04-.021-43.56.109l-.613 2.487-.81 3.267-.802 3.237c-4.669 18.123-13.919 36.572-25.775 51.009l-1.233 1.543c-23.471 29.35-56.157 46.929-93.469 51.274-39.164 3.12-78.25-6.269-108.81-31.676-.82-.707-1.642-1.413-2.488-2.141-.955-.81-1.91-1.62-2.895-2.453C21.221 1065.09 5.435 1031.074 3 997c-.19-5.062-.246-10.122-.25-15.188l-.002-2.15C2.803 942.817 13.266 910.932 39 884l1.965-2.191c23.804-25.54 61.371-39.275 95.65-40.936C173.855 839.801 209.47 849.195 238 874l2.77 2.367c8.729 7.667 15.266 15.594 20.859 25.738l1.312 2.372c5.377 9.808 10.273 19.855 15.189 29.9q1.832 3.73 3.675 7.455l1.101 2.27c.988 1.993 2.031 3.944 3.094 5.898l1.477 2.978c4.401 3.527 9.642 2.648 15.09 2.545l3.824-.014c3.375-.018 6.749-.057 10.124-.107 3.326-.044 6.653-.055 9.98-.07 13.775-.087 27.53-.428 41.294-.984a595 595 0 0 1 26.086-.473l2.066.008c4.686.02 9.373.065 14.059.117l3.425.022c2.943.027 5.883.088 8.825.165l2.523.018c3.966.152 5.932.552 9.032 3.107L436 960l1.992 1.957c3.256 3.208 6.409 6.446 9.383 9.918 3.46 4.03 7.196 7.734 11 11.437a132 132 0 0 1 5.8 6.359c3.721 4.267 7.644 8.29 11.653 12.286l2.27 2.275q3.68 3.686 7.367 7.366l5.159 5.161a17824 17824 0 0 0 10.79 10.785q6.895 6.889 13.782 13.786 5.321 5.326 10.647 10.647 2.54 2.54 5.08 5.082 3.556 3.56 7.12 7.113l2.09 2.096a215 215 0 0 0 12.027 11.113c3.932 3.46 7.532 7.273 11.195 11.014 3.044 3.082 6.118 6.057 9.41 8.875 4.088 3.556 7.946 7.296 11.77 11.132l2.068 2.065q2.145 2.145 4.288 4.293 3.25 3.256 6.51 6.504l4.197 4.2c.638.638 1.277 1.274 1.935 1.93 3.77 3.79 7.334 7.702 10.829 11.746 2.27 2.577 4.662 4.978 7.107 7.391l1.466 1.455q2.28 2.26 4.565 4.514c5.73 5.652 11.395 11.28 16.627 17.404 4.235 4.738 8.85 9.134 13.373 13.596 5.883 5.804 11.73 11.581 17.105 17.87a106 106 0 0 0 5.208 5.63l1.707 1.75c1.412 1.465 1.412 1.465 3.48 1.25 1.679-7.722 2.264-15.002 2.151-22.891l-.024-3.452c-.028-3.754-.072-7.508-.115-11.262q-.036-3.984-.068-7.968-.082-9.522-.187-19.042c-.079-7.34-.145-14.681-.211-22.022-.257-28.269-.58-56.536-1.108-84.8-.494-26.71-.581-53.418-.62-80.131q-.008-5.02-.026-10.04c-.073-23.439.125-46.844 1.032-70.267l.105-2.948c.639-17.376 2.14-34.85 6.759-51.677.255-.947.51-1.895.774-2.87 9.885-35.453 28.475-66.067 52.538-93.63l1.334-1.53c5.225-5.957 10.586-11.4 16.666-16.47l2.86-2.52c21.422-18.79 46.436-31.825 73.89-39.355l2.068-.58c16.837-4.304 34.313-3.882 51.55-3.95 3.515-.016 7.029-.042 10.543-.068q9.938-.068 19.877-.116c7.555-.039 15.11-.088 22.666-.138q23.272-.154 46.546-.273l-1.813-1.806a26245 26245 0 0 1-16.99-16.946q-4.365-4.357-8.734-8.71-4.224-4.208-8.442-8.422l-3.206-3.196q-2.264-2.253-4.522-4.514l-2.591-2.584a174 174 0 0 1-6.048-6.67c-3.631-4.181-7.476-8.102-11.406-12.002l-2.245-2.24a4879 4879 0 0 0-4.79-4.771 6753 6753 0 0 1-7.593-7.57q-8.056-8.038-16.12-16.069-9.35-9.313-18.69-18.634-3.726-3.715-7.457-7.425l-4.601-4.591-2.072-2.057a223 223 0 0 1-11.157-12.04 122 122 0 0 0-5.328-5.719l-1.992-2.022-2.078-2.09-2.207-2.224a3628 3628 0 0 0-4.588-4.608c-2.33-2.34-4.65-4.692-6.97-7.043l-4.485-4.5-2.078-2.115-1.992-1.984-1.72-1.73c-7.498-6.177-13.558-6.293-23.051-6.23q-2.152-.008-4.305-.02a1614 1614 0 0 0-11.819-.002c-4.26.007-8.52-.01-12.779-.022a6804 6804 0 0 0-22.242-.022c-10.887.007-21.774-.01-32.661-.033q-26.83-.053-53.66-.063a74315 74315 0 0 1-78.883-.082l-27.837-.041q-15.373-.024-30.745-.042c-79.37-.094-158.736-.531-238.103-1.161l-.612 2.484-.81 3.266-.8 3.234c-9.117 35.315-33.243 65.497-64.263 84.069-35.09 20.066-77.628 24.09-116.463 13.997C82.32 581.339 64.361 571.977 48 558l-2.484-2.078c-26.303-22.708-40.347-56.214-43.239-90.395-2.69-39.285 6.535-77.126 32.282-107.55C59.725 329.182 96.082 312.785 134 310c38.111-1.707 75.34 7.122 105 32l2.484 2.023C247.445 349.06 252.266 354.816 257 361l1.805 2.328c10.419 14.116 19.523 32.085 21.797 49.64.433 3.298 1.066 4.7 3.398 7.032 3.084 1.028 5.591 1.278 8.828 1.5l3.621.25 3.801.25 3.566.25c21.996 1.486 43.963 1.932 66.002 1.983q3.584.008 7.167.02c11.304.034 22.609.05 33.913.057l8.192.008c66.114.067 132.115-1.248 198.187-3.478 37.492-1.261 75.02-2.06 112.536-1.965l3.395.004c21.107.026 42.2.362 63.296.993 4.028.119 8.057.201 12.086.276l6.348.164 2.63.032c15.166.507 23.635 6.57 33.67 17.05q1.824 1.854 3.654 3.7a1322 1322 0 0 1 9.494 9.732c3.825 3.943 7.68 7.856 11.533 11.773 2.998 3.05 5.991 6.104 8.97 9.172l1.673 1.718a883 883 0 0 1 3.033 3.13 118 118 0 0 0 7.953 7.436c6.147 5.324 11.8 11.17 17.534 16.93l3.925 3.929q4.207 4.212 8.41 8.428 6.655 6.675 13.317 13.34a87636 87636 0 0 1 30.667 30.724q14.057 14.089 28.121 28.17 6.615 6.621 13.22 13.248 4.119 4.129 8.242 8.255 1.902 1.904 3.802 3.812c7.615 7.7 7.615 7.7 15.668 14.932 3.153 2.687 5.508 5.564 7.9 8.936 8.847 12.407 19.868 25.617 35.331 29.05 16.18 2.59 32.821 1.76 49.138 1.013 7.014-.314 14.028-.43 21.049-.535 14.384-.218 28.755-.67 43.128-1.287 6.847-23.11 10.899-46.334 13.188-70.313l.27-2.74c4.434-46.366-4.744-86.32-34.435-122.512-26.827-32.349-57.092-61.751-87.61-90.57l-5.939-5.613A3137 3137 0 0 0 977 276l-1.935.862a3076 3076 0 0 1-8.87 3.92l-3.041 1.356c-36.112 15.856-76.973 16.943-113.927 3.111-19.69-7.746-35.862-18.76-51.227-33.249l-2.043-1.883c-17.101-16.316-27.885-37.374-34.707-59.742l-.603-1.951c-3.298-11.375-4.01-22.822-3.96-34.612l.007-2.058c.055-10.846.636-21.22 3.306-31.754l.586-2.357C767.168 91.98 779.189 69.567 797 50l1.941-2.191c21.77-23.275 55.137-36.044 86.52-37.133 40.216-.959 80.688 9.797 111.227 37.199Q998.845 49.937 1001 52q1.772 1.448 3.563 2.875c7.793 6.638 13.862 15.606 19.437 24.125l1.742 2.66c17.25 27.867 22.184 64.353 14.788 96.127L1040 180l-.554 2.436c-2.986 12.817-7.775 24.017-13.958 35.61-3.268 6.28-6.414 12.746-5.488 19.954 1.778 2.651 4.023 4.77 6.315 6.98l2.035 2.033c2.225 2.216 4.47 4.41 6.716 6.604q2.331 2.31 4.658 4.625c4.093 4.064 8.203 8.11 12.317 12.153 4.975 4.894 9.932 9.806 14.889 14.718a4389 4389 0 0 0 11.604 11.462l2.174 2.143q1.986 1.96 3.979 3.911c2.954 2.918 5.784 5.877 8.481 9.034 5.141 5.95 10.789 11.416 16.357 16.96l3.782 3.777q4.053 4.048 8.11 8.092 6.42 6.402 12.836 12.812 13.62 13.601 27.247 27.196 14.715 14.68 29.42 29.367 6.371 6.363 12.748 12.719 3.973 3.962 7.943 7.93 1.832 1.83 3.667 3.657c10.413 10.367 10.413 10.367 14.363 15.103 2.518 2.977 5.218 5.239 8.326 7.591 8.328 6.578 15.302 13.13 16.91 24.031 1.012 8.676.88 17.436.757 26.155-.042 4.431.032 8.86.091 13.29.097 8.39.093 16.778.052 25.168-.042 9.453.029 18.904.11 28.356.147 17.611.18 35.22.134 52.833-.027 12.1-.021 24.2-.021 36.3h135V295l-10-3a136 136 0 0 1-6.687-2.969l-3.59-1.713q-1.863-.908-3.723-1.818l-1.93-.94c-16.17-7.888-30.702-16.478-44.07-28.56l-2.633-2.2c-25.312-21.463-38.7-55.235-42.086-87.624-2.935-38.945 8.015-75.957 33.219-105.989 52.857-61.226 141.886-67.218 203.793-15.86"/><path fill="#fefefe" d="m884.257 721.746 5.65-.01c5.188-.009 10.375-.005 15.562 0 5.64.005 11.278-.002 16.917-.008q14.831-.013 29.662-.007 15.912.007 31.825-.002l2.031-.001 8.19-.005a127221 127221 0 0 1 94.616-.015h2.304q25.283.002 50.565-.004l11.546-.002 11.6-.003q65.922-.014 131.843-.009h2.466l27.226.003h2.483l9.941.002q78.603.008 157.205-.021l39.605-.014h2.464a249675 249675 0 0 1 77.555-.015 511787 511787 0 0 1 74.972.003q36.737 0 73.475-.017a81370 81370 0 0 1 84.247.003l2.026.001c11.218.005 22.436-.003 33.654-.013q14.647-.012 29.293.006c5.564.006 11.127.008 16.69-.004q7.601-.014 15.201.007 2.725.004 5.45-.007c14.858-.061 28.85 1.363 42.792 6.948l2.652 1.042c18.143 7.32 34.559 16.962 48.851 30.388 2.2 2.072 2.2 2.072 4.762 4.051 18.506 14.954 31.402 40.067 39.235 62.082l.842 2.346c4.624 13.538 5.783 26.113 5.725 40.271l.014 5.625c.013 5.14.007 10.281-.002 15.422-.007 5.597.004 11.194.012 16.79q.018 14.71.007 29.419a23133 23133 0 0 0 .01 41.698 84251 84251 0 0 1 .015 93.84v2.284a116310 116310 0 0 0 .006 57.023l.004 18.41c.01 42.83.016 85.662.008 128.493v2.446l-.006 27v2.463l-.002 9.858q-.015 77.959.02 155.918l.019 41.731q.015 37.288.017 74.577v2.365a373428 373428 0 0 1-.006 74.385q-.003 36.438.02 72.874a59791 59791 0 0 1-.01 85.57c-.007 11.123.002 22.245.016 33.368q.015 14.528-.01 29.054c-.008 5.517-.01 11.033.005 16.55q.019 7.54-.01 15.08-.007 2.698.009 5.398c.085 15.63-2.27 30.32-8.078 44.93l-1.025 2.614c-16.727 41.454-47.268 72.665-88.415 90.248-27.098 11.185-54.23 11.415-83.083 11.333-5.481-.011-10.962 0-16.443.01q-14.381.018-28.763 0c-13.589-.017-27.178-.014-40.766-.004q-36.993.024-73.984 0a100958 100958 0 0 0-93.772-.015l-52.667.002a175539 175539 0 0 1-75.399-.018l-38.43-.018a227761 227761 0 0 0-162.08-.017h-2.406l-26.386.006h-2.39a281357 281357 0 0 1-150.253-.015q-24.522-.007-49.044-.003h-2.23l-11.116.003q-40.197.009-80.393-.02-21.255-.017-42.508-.005-14.2.008-28.4-.015a4870 4870 0 0 0-16.176-.002q-7.37.014-14.74-.012a868 868 0 0 0-5.275.006c-44.144.172-84.852-16.364-116.294-47.391-31.941-31.888-43.578-74.541-43.656-118.331.002-4.086.017-8.171.032-12.257.016-5.537.002-11.074-.008-16.61q-.018-14.527.01-29.053c.025-14.401.022-28.802.013-43.203-.014-24.233-.004-48.465.02-72.698a76699 76699 0 0 0 .037-76.502v-18.19q0-25.422.005-50.844v-2.338c.007-38.31.034-76.62.062-114.93a232233 232233 0 0 0 .06-168.551l.002-26.64c.002-43.017.015-86.033.031-129.05l.001-2.276.008-20.385a216947 216947 0 0 0 .018-60.776q.005-41.711.04-83.422.02-21.47.02-42.937 0-14.334.02-28.668.012-8.17.007-16.34-.006-7.437.014-14.872.003-2.67-.002-5.34c-.092-42.636 17.426-80.808 47.32-110.912C807.85 744.565 831.709 730.964 857 724l3.517-1.028c7.769-1.694 15.83-1.247 23.74-1.226"/><path fill="#060708" d="m1236.816 1012.867 3.23-.004c3.505-.002 7.01.005 10.516.012l3.63.003c26.942.023 53.874.513 80.808 1.122 3.305 6.993 5.866 14.143 8.316 21.473l1.88 5.57q.999 2.963 1.992 5.925 2.1 6.253 4.209 12.501 2.179 6.459 4.353 12.918c4.16 12.357 8.347 24.705 12.541 37.05 7.487 22.041 14.951 44.09 22.412 66.14q9.884 29.217 19.797 58.423 10.265 30.245 20.5 60.5a67033 67033 0 0 0 20.563 60.688q9.915 29.215 19.812 58.437l.66 1.951 20.59 60.799.661 1.952A94548 94548 0 0 0 1512.5 1535q9.947 29.31 19.875 58.625l.66 1.95 10.632 31.394Q1553.83 1656.984 1564 1687l1.281 3.78a101830 101830 0 0 0 9.906 29.223 8391 8391 0 0 0 11.887 34.864l.948 2.758q2.155 6.274 4.324 12.541l1.478 4.295 1.284 3.712C1596 1781 1596 1781 1596 1783h-106c-17.22-49.364-17.22-49.364-22.316-64.57l-1.786-5.306q-2.28-6.776-4.555-13.553-4.076-12.135-8.16-24.266l-.9-2.678a9414 9414 0 0 0-15.24-44.866 9402 9402 0 0 1-11.62-34.184q-3.037-8.98-6.069-17.963-1.706-5.05-3.414-10.1-.937-2.774-1.87-5.546l-1.137-3.36-.99-2.929a96 96 0 0 0-2.064-5.342C1409 1546 1409 1546 1409 1543h-273l-3 10a462 462 0 0 1-2.602 7.43l-1.472 4.118-.767 2.138c-5.397 15.068-10.432 30.216-15.254 45.478a636 636 0 0 1-3.655 11.024 362 362 0 0 0-4.5 14.437c-6.845 23.55-14.452 46.844-22.3 70.076q-1.386 4.101-2.75 8.207c-4.746 14.274-9.858 28.343-15.513 42.28l-.827 2.044q-1.182 2.91-2.38 5.811l-1.378 3.344c-2.044 4.61-4.347 9.102-6.602 13.613h-97c1.296-5.83 2.61-11.218 4.572-16.791l.771-2.232q.834-2.415 1.674-4.826c1.585-4.557 3.15-9.12 4.717-13.682l1.03-2.998c4.293-12.516 8.466-25.072 12.642-37.627l2.486-7.467q3.805-11.438 7.608-22.877a69106 69106 0 0 1 11.337-34.08 5498 5498 0 0 1 16.022-47.425c5.193-15.137 10.274-30.311 15.328-45.495.6-1.798.6-1.798 1.21-3.633q4.304-12.932 8.603-25.867 4.903-14.752 9.813-29.5l1.21-3.638a5128 5128 0 0 1 14.946-44.268c5.567-16.221 11.02-32.479 16.437-48.75l1.243-3.732q4.428-13.305 8.851-26.612a69106 69106 0 0 1 11.337-34.08 5498 5498 0 0 1 16.022-47.425c5.193-15.137 10.274-30.311 15.329-45.495l1.209-3.633q4.304-12.932 8.603-25.867 4.903-14.75 9.813-29.5l1.206-3.627a5091 5091 0 0 1 16.047-47.426c4.34-12.632 8.524-25.31 12.64-38.018 1.93-5.95 3.872-11.894 5.814-17.84a2754 2754 0 0 0 4.904-15.163q2.412-7.531 4.892-15.041.922-2.823 1.816-5.653a511 511 0 0 1 2.542-7.78l.707-2.323c.95-2.761 1.8-5.068 4.27-6.76 7.386-3.284 15.26-3.018 23.165-3.002"/><path fill="#060909" d="M1707 1013h103l.056 48.492.002 2.557c.062 55.846.118 111.692.154 167.538l.002 3.265a728627 728627 0 0 1 .06 104.717l.003 3.463c.021 37.069.059 74.138.104 111.207a117668 117668 0 0 1 .093 130.367l.001 3.206c.006 17.052.03 34.104.06 51.156q.043 25.692.033 51.384a9191 9191 0 0 0 .036 30.558q.028 10.194.005 20.388c-.007 3.877-.007 7.755.015 11.632.024 4.17.01 8.338-.009 12.507l.04 3.68c-.091 9.023-.091 9.023-3.065 12.129-2.542 1.721-3.678 2.38-6.688 2.389l-2.37.043-2.557-.031-2.727.027c-2.969.021-5.936.007-8.904-.01q-3.099.005-6.198.015-6.492.009-12.982-.027c-5.546-.029-11.09-.012-16.635.018-4.266.018-8.53.012-12.796 0q-3.068-.006-6.134.011c-2.859.013-5.715-.006-8.574-.034l-2.557.03-2.37-.042-2.044-.006c-3.329-1.02-5.331-2.67-7.054-5.629-.763-4.179-.661-8.325-.615-12.563l-.018-3.931c-.015-3.616 0-7.23.022-10.846.017-3.928.005-7.855-.003-11.783q-.014-10.332.018-20.665c.03-10.243.032-20.486.027-30.729q-.007-25.844.04-51.687.046-25.594.055-51.19v-3.212l.005-16.153c.01-38.154.044-76.308.092-114.461a166895 166895 0 0 0 .104-114.673l.02-34.414.043-73.363c.036-55.612.093-111.225.154-166.838l.003-2.37z"/><path fill="#fdfdfd" d="M1269 1103c1.695 2.543 2.55 4.277 3.488 7.105l.849 2.532.913 2.771.976 2.93q1.606 4.828 3.204 9.658 1.129 3.396 2.259 6.79 2.991 8.997 5.974 17.996 2.965 8.94 5.939 17.876 4.599 13.839 9.193 27.68 5.38 16.209 10.783 32.412l.73 2.192q4.65 13.94 9.31 27.874c7.216 21.594 14.394 43.198 21.416 64.856 6.285 19.382 12.732 38.708 19.195 58.031q2.52 7.538 5.033 15.078l.78 2.342q1.865 5.595 3.725 11.19c2.136 6.42 4.279 12.838 6.461 19.243q1.428 4.197 2.848 8.397.665 1.959 1.338 3.913c.614 1.78 1.217 3.565 1.82 5.349l1.038 3.035c.74 2.793 1.095 4.884.728 7.75-1.278 1.622-1.278 1.622-3 3a81 81 0 0 1-8.807.381l-2.76.014c-3.066.012-6.131.003-9.197-.007q-3.289.006-6.577.016c-5.965.014-11.93.008-17.895-.001-6.232-.008-12.465 0-18.697.004q-16.71.007-33.418-.019-15.156-.018-30.312.003-17.591.025-35.182.013c-6.21-.004-12.42-.005-18.63.005q-8.757.013-17.513-.015a1307 1307 0 0 0-6.44.004c-2.922.008-5.843-.002-8.765-.017l-2.597.02c-5.753-.057-5.753-.057-7.954-1.711-1.256-1.69-1.256-1.69-1.2-5.1.996-5.868 3.073-11.428 5.038-17.027l1.267-3.672q1.704-4.925 3.425-9.844 1.44-4.132 2.87-8.268c6.265-18.083 12.635-36.128 19.056-54.156 8.704-24.447 17.013-49.028 25.288-73.623l.853-2.532c5.245-15.577 10.387-31.182 15.32-46.86.844-2.661 1.702-5.317 2.565-7.971a720 720 0 0 0 9.514-31.757 734 734 0 0 1 4.286-15.071c4.156-13.998 7.924-28.059 11.434-42.232q1.28-5.15 2.573-10.298.832-3.336 1.662-6.674l.764-3.046a225 225 0 0 0 3.592-17.463C1268 1104 1268 1104 1269 1103"/><path fill="#fefefe" d="M1471.563 82.066A179 179 0 0 1 1479 89l2.09 2.016c10.375 10.765 16.432 24.612 19.91 38.984l.555 2.208c5.602 24.548 1.307 49.428-11.555 70.792-3.48 5.18-7.422 9.757-12 14l-1.664 1.61c-17.87 16.62-41.554 21.421-65.227 20.73-20.798-1.096-40.753-10.92-55.136-25.953-17.927-21.69-23.592-47.811-21.973-75.387 2.478-21.943 14.092-42.01 31-56 30.316-22.531 76.613-24.085 106.563.066M953.832 82.176C969.776 95.8 978.482 113.842 983 134l.535 2.361c3.974 22.552-.364 48.099-12.887 67.346C957.886 221.46 942.284 232.081 921 237l-2.01.53c-20.703 5.188-44.821 1.469-63.111-9.382-21.416-13.849-34.492-34.178-40.024-58.937-1.057-5.615-1.2-11.134-1.168-16.836l.018-3.187c.357-23.1 7.865-42.835 23.842-59.817C850.132 78.173 865.127 70.1 881 67l3.066-.613c24.798-4.387 49.668.348 69.766 15.789M144.375 1724.75l3.055.025c22.912.343 41.977 8.164 58.127 24.665 15.73 16.997 24.368 41.088 23.828 64.168-1.062 24.157-7.87 46.067-25.385 63.392-20.433 18.028-44.644 22.115-71 21-20.098-1.56-37.806-10.65-51.66-25.223C64.993 1853.374 56.94 1828.312 59 1803c2.405-23.185 11.978-43.864 29.707-59.367 15.993-12.717 35.318-19.086 55.668-18.883M199.035 1328.438c17.452 14.866 28.227 37 30.252 59.787 1.474 25.777-4.129 49.858-21.287 69.775-15.616 16.45-36.162 24.538-58.578 25.336-25.932.353-46.835-4.334-65.969-22.793-18.141-18.773-24.023-42.134-23.94-67.627.447-20.84 7.231-40.422 21.487-55.916l2.27-2.547c29.57-31.529 82.782-32.504 115.765-6.015M193 378l2.16 1.418c1.661 1.126 3.26 2.345 4.84 3.582v2l1.734.703c14.146 8.098 21.2 29.512 25.266 44.297 3.952 14.955 3.313 32.243-1 47l-1.066 3.766c-6.254 20.925-19.36 37.129-38.493 47.476-4.383 2.24-8.792 4.15-13.441 5.758l-2.945 1.031c-21.464 6.807-46.395 4.542-66.253-5.692C82.282 517.596 68.938 498.201 62 475c-5.91-22.245-2.968-49.23 7.832-69.426 11.695-20.08 29.234-32.049 51.367-38.508C145.865 360.598 171.7 363.5 193 378M2743 1740l2.8 2.023c17.9 13.715 28.794 36.095 31.731 58.227 2.62 23.814-1.325 48.313-16.617 67.473L2759 1870l-1.602 2.121c-11.98 15.137-32.745 23.586-51.398 25.879-23.402 1.643-46.636-.166-65.352-15.68-3.024-2.643-5.845-5.444-8.648-8.32l-2.016-1.988c-9.372-9.858-15.058-23.15-18.984-36.012l-.593-1.935c-1.958-7.413-1.806-15.014-1.782-22.628l.004-2.165c.11-24.06 7.832-44.385 24.621-61.96 28.414-27.52 77.931-30.707 109.75-7.312M1990 82c18.658 15.94 30.871 38.391 33 63 1.267 22.146-2.816 45.543-17.938 62.682-2.294 2.503-4.663 4.915-7.062 7.318l-1.996 2.031c-16.398 15.516-41.13 22.693-63.264 22.367-21.888-.733-40.616-8.554-55.928-24.585-18.859-21.644-25.303-47.754-23.812-75.813 1.645-20.73 11.2-40.336 27-54 30.917-24.754 78.247-27.808 110-3M1470.215 2614.367c17.623 13.882 26.953 32.306 32.785 53.633l.542 1.836c4.513 21.323-.487 43.82-11.542 62.164-2.168 3.17-4.488 6.1-7 9l-1.844 2.438c-12.794 15.204-38.567 26.819-58.156 28.562-22.993 1.395-43.341-4.01-61.125-19.187-17.844-16.743-28.935-41.46-29.875-65.813-.12-4.673-.114-9.327 0-14 .017-.914.034-1.828.05-2.77.895-17.036 8.872-33.52 19.95-46.23.496-.59.993-1.18 1.504-1.79 28.476-31.259 82.088-31.864 114.71-7.843M2750.313 1330.313c12.305 11.465 20.716 27.496 24.687 43.687l.902 3.547c5.241 22.896 1.736 48.102-10.015 68.52-2.97 4.617-6.252 8.824-9.887 12.933l-1.57 1.855c-12.858 14.118-32.661 21.228-51.326 22.313-24.534.918-45.614-2.36-65.104-18.168l-3.187-2.375c-9.697-9.05-16.4-20.388-21.126-32.687l-.734-1.892c-3.787-10.38-4.344-20.827-4.328-31.796l.003-2.012c.044-10.081.6-18.806 4.372-28.238l.731-1.956c6.935-18.434 19.02-33.305 36.269-43.044l2.285-1.363c31.56-17.485 70.749-11.384 98.028 10.676M2726 901l1.938.795c8.28 3.532 15.38 8.178 22.062 14.205l2.074 1.793c15.965 14.71 24.946 37.96 26.034 59.331.652 23.665-4.492 47.822-20.858 65.751-9.474 9.894-19.54 16.286-32.25 21.125l-2.392 1.006c-9.178 3.499-19.104 3.4-28.796 3.369l-2.078-.004c-22.39-.107-41.643-6.858-58.527-21.976C2632 1045 2632 1045 2632 1043h-2c-10.398-12.166-16.883-26.344-20-42l-.517-2.252c-2.617-14.884-1.982-33.73 3.517-47.748l1.063-3.059c7.434-19.85 21.846-35.792 40.937-44.941 21.632-9.594 48.955-11.045 71-2M2693.563 364.625l3.405-.042c18.059.102 35.128 5.855 49.032 17.417l2.582 2.09c16.526 14.038 25.68 33.796 29.418 54.91 1.747 26.504-2.51 50.41-20.187 71.125-15.978 17.03-39.326 27.197-62.606 28.129-24.145.506-43.181-5.653-60.957-22.442-20.042-20.888-25.941-47.687-25.566-75.757.248-7.897 1.449-14.65 4.316-22.055l1.063-3.098c7.148-19.235 22.216-34.152 40.675-42.691 12.862-5.603 24.89-7.467 38.825-7.586M2719 2260l1.887.602c9.707 3.128 17.945 7.165 26.113 13.398l2.2 1.645c15.388 12.425 25.382 33.949 28.488 53.19 2.313 23.427-1.296 49.702-15.996 68.87-3.026 3.648-6.302 6.985-9.692 10.295l-1.953 2.016c-7.574 7.31-18.93 13.23-29.047 15.984l-2.934.836c-25.267 6.14-52.107 2.485-74.32-10.996-3.867-2.59-7.627-5.363-10.746-8.84v-2l-3-1c-14.928-18.34-21.442-38.832-21.375-62.25v-2.08c.032-10.132.598-19.152 4.375-28.67l1.063-3.055c6.563-17.549 18.449-31.943 34.937-40.945l2.879-1.617c19.409-9.965 46.426-12.37 67.121-5.383M1989.313 2571.313c18.163 14.502 29.355 33.203 32.486 56.489 1.372 15.031 1.769 30.998-3.799 45.198l-.731 1.948c-7.908 20.818-21.291 36.965-41.566 46.622-3.203 1.305-6.399 2.411-9.703 3.43l-3.012.965c-8.036 2.145-15.894 2.312-24.176 2.347l-3.31.017c-23.474-.207-43.23-8.6-60.19-24.642-18.116-18.658-22.849-43.59-22.59-68.554.592-22.42 10.2-42.813 26.077-58.541 28.005-26.34 79.757-27.542 110.514-5.28M900.625 2556.563l2.146-.002c11.103.037 20.992.903 31.229 5.439l2.025.845c21.189 8.966 33.958 24.239 42.975 45.155a85 85 0 0 1 3 10l1.043 3.32c1.622 6.547 1.398 13.35 1.394 20.055l.002 2.164c-.037 11.439-.932 21.84-5.439 32.461l-.877 2.089c-8.954 20.654-23.043 35.281-43.568 44.45-20.809 8.105-48.752 8.338-69.478-.345-8.402-3.76-16.226-7.971-23.077-14.194l-2.223-1.945c-14.386-13.375-23.49-33.24-25.079-52.763-.134-3.895-.166-7.77-.135-11.667l.009-2.067c.066-10.08.639-19.103 4.428-28.558l1.285-3.535c7.406-18.958 20.977-34.89 39.675-43.352 2.042-.87 4.094-1.691 6.165-2.488l1.88-.724c10.615-3.812 21.44-4.345 32.62-4.338M197.938 913.438A154 154 0 0 1 202 917l2.223 1.945c16.862 15.677 23.804 37.316 25.093 59.785.867 24.105-7.165 48.161-23.328 66.188-15.73 16.72-37.127 23.046-59.402 24.27-8.005.155-15.708-.84-23.586-2.188l-2.32-.297c-15.85-2.531-33.477-14.681-42.865-27.295-12.321-17.518-17.971-36.076-18.065-57.47l-.062-3.49c-.1-22.313 8.6-43.04 23.886-59.143 30.478-28.956 80.75-30.889 114.364-5.867M199.625 2277.188c15.93 13.732 28.122 33.617 30.375 54.812 1.702 27.066-3.986 49.214-22 70-2.117 2.29-2.117 2.29-4 4h-2v2c-11.752 9.585-25.35 16.214-40 20l-2.508.684c-19.717 4.717-41.327-.577-58.597-10.461-20.985-13.275-35.319-32.799-41.204-56.918-4.754-22.726-.424-44.976 12.121-64.555 3.97-5.673 8.335-10.816 13.188-15.75l2.3-2.34c30.179-28.894 80.846-27.61 112.325-1.472"/><path fill="#171717" d="m530.171 2315.482 7.065.101c14.604.21 29.208.422 43.812.653 29.89.475 59.775.852 89.67.854q3.011 0 6.022.002c22.78.001 45.548-.33 68.322-.809 13.647-.284 27.288-.34 40.938-.283-1.327 1.969-1.327 1.969-4 4-3.577.635-7.149.532-10.773.504l-3.515.025q-3.92.027-7.84.029c-6.806.002-13.61.073-20.415.14q-2.61.025-5.222.048c-17.822.161-35.64.531-53.458.938l-2.163.049q-15.434.352-30.867.716c-117.081 2.749-117.081 2.749-173.168 2.681q-7.208-.006-14.414.004c-35.065.035-70.134-.437-105.165-2.071l-2.839-.13q-9.582-.438-19.161-.933l-2.356-.121c-4.675-.244-9.347-.519-14.019-.816l-3.309-.19c-5.993-.422-10.803-1.459-16.316-3.873v-1a72.4 72.4 0 0 1 12.232-1.221l3.761-.07 4.12-.06 4.41-.072c4.93-.077 9.86-.14 14.79-.202l2.624-.033c63.745-.804 127.495.219 191.234 1.14"/><path fill="#171516" d="m2007.942 424.746 2.782-.01c3.1-.009 6.198-.003 9.297.003l6.707-.011c6.16-.01 12.321-.008 18.482-.004 5.956.002 11.913-.005 17.87-.012 13.692-.015 27.386-.017 41.079-.014a54718 54718 0 0 0 43.147-.01 107822 107822 0 0 1 78.487-.005h2.449l4.902.002q38.125.007 76.251-.021a98844 98844 0 0 1 94.782-.027h2.272q16.974.001 33.949-.015 19.311-.019 38.622-.002 9.854.012 19.708-.005 9.023-.014 18.044.007 3.262.003 6.526-.008c20.907-.071 20.907-.071 29.702 3.386v1h-3.52a208232 208232 0 0 0-231.19.153l-2.49.002q-39.962.039-79.923.04a60879 60879 0 0 0-93.703.078l-2.304.004c-12.254.016-24.508.015-36.762.008q-18.468-.01-36.934.034c-6.674.015-13.348.022-20.021.008q-9.156-.019-18.311.024-3.321.01-6.642-.007c-3-.015-5.996.001-8.995.025l-2.634-.035c-4.374.07-6.036.233-9.552 3.08-1.64 2.1-3.245 4.17-4.706 6.398L1993 442h-2c-.958-3.535-1.524-5.742-.094-9.176 4.463-7.443 8.532-8.122 17.036-8.078M2021 473h533l1 3c-1.837 1.837-4.418 1.124-6.864 1.131l-2.583-.008-2.73.004q-4.59.002-9.178-.007-3.3 0-6.598.003-9.113.002-18.224-.007-8.804-.005-17.606-.002-18.017.001-36.032-.008-17.847-.01-35.693-.011h-2.239l-11.256-.001q-39.897-.004-79.795-.019-38.767-.014-77.535-.02h-2.412l-75.123-.013q-75.066-.016-150.132-.042zM283 473h530l1 3c-1.832 1.832-4.394 1.124-6.832 1.131l-2.568-.008-2.715.004q-4.563.002-9.126-.007l-6.561.003q-9.06.002-18.122-.007-9.753-.005-19.507-.002-16.914 0-33.829-.008a87073 87073 0 0 0-48.91-.012q-39.673-.004-79.346-.019-38.55-.014-77.099-.02h-2.399l-72.443-.013h-2.257Q357.643 477.026 283 477z"/><path fill="#131313" d="M2163 1370h391l-1 4c-2.693 1.347-4.605 1.018-7.618.885l-3.65-.143-1.986-.083c-20.849-.852-41.7-.857-62.563-.848q-4.647.002-9.296 0c-28.432.002-56.841.304-85.262 1.127l-2.287.066c-11.957.348-23.914.699-35.864 1.246-15.867.712-31.702.913-47.583.918l-7.89.01q-8.21.009-16.418.007-9.356.001-18.713.026c-6.108.015-12.217.018-18.326.018q-3.825 0-7.648.013c-13.548.038-27.037-.217-40.561-1.069l-3.603-.21c-6.768-.477-13.469-1.169-19.732-3.963z"/><path fill="#171717" d="M2059.66 2314.87q2.308 0 4.614-.005 6.259-.005 12.518 0 5.33.003 10.659 0 14.354-.006 28.707.004 10.586.007 21.173.009c50.826.01 101.647.174 152.471.658 52.441.498 104.88.55 157.323.526h3.04q38.418-.018 76.835-.062c-2.394 3.135-3.581 3.942-7.553 4.493q-2.192.026-4.384-.01c-.81.005-1.619.008-2.452.012-2.73.008-5.46-.013-8.19-.034q-2.955-.001-5.91.004c-5.426.003-10.854-.019-16.28-.045-5.849-.023-11.697-.023-17.545-.026q-15.21-.014-30.42-.063c-14.675-.046-29.35-.066-44.025-.08l-20.511-.023-2.074-.003a53773 53773 0 0 1-51.056-.093l-19.505-.042q-23.841-.05-47.683-.097l-2.156-.004q-24.378-.048-48.755-.08l-2.071-.002q-10.24-.013-20.48-.024-22.964-.024-45.927-.09a16135 16135 0 0 0-30.1-.055c-5.789-.006-11.577-.017-17.364-.042q-7.956-.032-15.91-.028-2.871-.002-5.742-.02c-10.433-.064-19.832.332-29.907 3.352v-7c9.567-.894 19.057-1.144 28.66-1.13"/><path fill="#131313" d="M578.372 1368.871q9.516.006 19.033-.003 10.558-.007 21.118-.002 4.38.001 8.762-.002c14.6-.012 29.186.1 43.778.582l3.64.117c5.502.203 10.87.499 16.297 1.437v3H283v-2c2.783-1.391 5.061-1.138 8.177-1.151l1.943-.013q3.242-.018 6.485-.025l4.645-.026q5.027-.027 10.055-.045 8.053-.032 16.105-.077 15.782-.081 31.564-.15a59939 59939 0 0 0 50.494-.246c23.467-.12 46.925-.338 70.387-.79 31.84-.611 63.673-.63 95.517-.606"/><path fill="#171314" d="M878 715h507v3H878z"/><path fill="#181617" d="M2153 1419h401v3h-401z"/><path fill="#161616" d="M2556 946h2c1.831 3.132 2.272 5.448 2.25 9.063l.016 2.597C2560 960 2560 960 2558 963c-2.651.37-2.651.37-6.087.36l-3.935.013-4.342-.032h-4.552c-4.128.002-8.256-.016-12.384-.037-4.31-.019-8.622-.02-12.932-.024-8.167-.01-16.334-.034-24.501-.064-9.296-.033-18.592-.05-27.888-.065-19.127-.031-38.253-.084-57.379-.151q1.216-1.97 2.438-3.937l1.37-2.215C2409 955 2409 955 2410 954c5.156-.308 10.335-.243 15.5-.25l2.465-.007c18.893-.02 37.727 1.046 56.58 2.19 18.89 1.126 37.966 2.172 56.83.13l2.8-.264c4.564-.341 4.564-.341 8.825-1.799.903-1.883.903-1.883 1.625-4.062.26-.734.52-1.467.79-2.223.192-.566.386-1.132.585-1.715"/><path fill="#181617" d="M281 1419q52.344-.046 104.688-.062l3.928-.002c72.755-.024 145.506.073 218.259.564l2.691.018q32.718.22 65.434.482v1c-32.35 1.687-64.725 2.094-97.113 2.09h-2.21c-35.594.004-71.18-.458-106.769-.98q-20.105-.293-40.209-.572-6.986-.098-13.972-.2c-19.894-.293-39.777-.492-59.672-.154l-3.696.06-7.647.128q-5.715.096-11.43.185c-12.323.2-24.644.46-36.962.853l-3.332.087-3.058.109-2.677.084c-2.533.182-2.533.182-5.253 2.31l-2-2c.375-2.125.375-2.125 1-4"/><path fill="#141213" d="M1251 473h2l-1 191-4-2c-.926-34.247-1.217-68.472-1.013-102.73l.04-7.187q.085-16.009.237-32.018.05-5.295.082-10.592.04-6.26.117-12.52.025-2.319.035-4.639c.01-2.131.037-4.262.07-6.393l.033-3.629c.442-3.65 1.58-6.12 3.399-9.292"/><path fill="#141112" d="M1585 477h4v180h-4z"/><path fill="#101010" d="m394.25 953.875 4.02-.012c8.955.009 17.806.436 26.73 1.137v3c-2.85 1.607-4.935 2.258-8.2 2.319l-2.522.06-2.75.035-2.93.059c-3.22.061-6.44.107-9.66.152l-6.775.113c-17.99.28-35.983.365-53.976.387l-3.822.008c-36.71.06-36.71.06-44.365-4.133v-1l2.096-.031q9.987-.15 19.974-.308 5.13-.083 10.258-.158c15.158-.227 30.299-.561 45.446-1.165 8.83-.344 17.64-.49 26.476-.463"/><path fill="#151314" d="M1249 2132h3v171h-3c-1.445-2.89-1.126-5.382-1.127-8.612l-.005-2.082c-.004-2.313 0-4.626.003-6.94l-.006-4.96q-.004-6.75 0-13.5c.003-4.7 0-9.4 0-14.1q-.004-11.84.005-23.68.007-13.707-.002-27.415-.007-11.75-.003-23.5.003-7.028-.001-14.053-.004-6.603.005-13.206 0-2.43-.002-4.86-.002-3.304.006-6.607l.001-3.744C1248 2133 1248 2133 1249 2132"/><path fill="#141112" d="M1585 2133h4v170h-4z"/><path fill="#191617" d="M687 864h1v198l-2-1c-.98-34.317-1.113-68.63-1.123-102.958q-.003-5.172-.01-10.344c-.066-64.391-.066-64.391 2.133-83.698"/><path fill="#161415" d="m836 425 1 3c-1 1-1 1-4.598 1.098a675 675 0 0 1-4.465-.036l-2.298-.013q-2.82-.02-5.639-.049v-3z"/></svg>