<svg width="256" height="256" viewBox="0 0 24 24" fill="none" xmlns="http://www.w3.org/2000/svg">
  <path fill-rule="evenodd" clip-rule="evenodd" d="M12 0C5.37 0 0 5.37 0 12C0 17.31 3.438 21.8 8.205 23.385C8.805 23.49 9.03 23.13 9.03 22.815V20.73C5.685 21.45 4.98 19.11 4.98 19.11C4.44 17.73 3.645 17.37 3.645 17.37C2.55 16.62 3.735 16.635 3.735 16.635C4.95 16.725 5.58 17.895 5.58 17.895C6.66 19.74 8.415 19.2 9.105 18.9C9.21 18.12 9.525 17.595 9.87 17.295C7.215 17 4.41 15.975 4.41 11.415C4.41 10.115 4.875 9.045 5.64 8.22C5.52 7.92 5.115 6.705 5.76 5.055C5.76 5.055 6.765 4.74 9.045 6.285C10 6.015 11.04 5.88 12.075 5.88C13.11 5.88 14.16 6.015 15.12 6.285C17.4 4.74 18.405 5.055 18.405 5.055C19.05 6.705 18.645 7.92 18.525 8.22C19.29 9.045 19.755 10.115 19.755 11.415C19.755 15.99 16.935 17 14.265 17.28C14.685 17.64 15.075 18.375 15.075 19.5V22.815C15.075 23.13 15.285 23.505 15.9 23.385C20.67 21.795 24.105 17.31 24.105 12C24.105 5.37 18.735 0 12.075 0V0Z" fill="black"/>
</svg>