<svg width="124" height="124" viewBox="0 0 124 124" fill="none" xmlns="http://www.w3.org/2000/svg">
<path d="M100.931 54.7574C100.159 52.7482 98.5721 50.9544 96.6411 49.661C91.0665 46.1544 82.5708 45.9047 76.8269 49.0748C73.6942 50.657 71.6352 53.788 70.9944 57.0125C69.8322 62.31 70.1324 68.6131 74.2522 72.5838C79.0562 76.7557 86.048 77.6773 92.2653 75.9636C92.5607 75.9074 93.4968 75.6739 94.1424 75.3345L94.3243 75.2573C96.2553 74.4624 98.0968 73.1681 99.4717 71.4153C102.645 66.8193 102.862 59.9329 100.931 54.7574ZM90.8086 66.6534C90.5893 67.658 89.9071 68.6988 88.8314 69.0763C87.1188 69.8226 84.802 69.6157 83.2155 68.7427C81.8848 67.821 81.7136 66.2779 81.5423 64.8177C81.4124 61.9392 81.2027 58.8911 82.0166 56.2595C82.6545 54.6297 84.4143 54.2103 86.0057 54.0873C87.6769 54.0873 89.3039 54.3399 90.3362 55.6752C90.9789 56.6331 90.9395 57.8865 91.0665 59.015C91.0213 61.3931 91.2368 64.2296 90.8086 66.6534ZM39.982 69.2459C38.5657 69.1602 36.9791 69.2831 35.6081 69.1163L35.6504 54.459L35.737 54.337L39.982 54.2961C40.0262 51.917 40.0685 49.3655 39.9377 47.1971L23.7709 47.1523L21.1087 47.1981C21.0664 49.4094 21.0664 51.9952 21.1087 54.2522C22.5683 54.297 23.9384 54.2522 25.3546 54.3828V68.5778L25.3132 69.1611L21.0664 69.2469C20.9779 71.5425 20.9779 73.8405 21.0664 76.1361H39.981L39.982 69.2459ZM87.5884 79.2643C85.7892 81.8139 83.5157 84.2768 81.0333 86.1926C80.9429 86.3232 80.686 86.2736 80.6042 86.1535C79.5286 85.4873 78.3711 84.9421 77.3397 84.2768C78.7136 82.6498 80.0443 81.0219 81.0738 79.2195H79.7393C78.6732 80.7703 77.5552 82.3973 76.1409 83.7707C74.2522 83.0206 72.5377 82.3534 70.6077 81.8482L70.3931 81.6891C70.6933 80.8456 71.2494 80.0535 71.4197 79.2176H70.2622L69.1048 81.4737C66.5773 80.9313 63.788 80.6359 61.2143 80.471C61.0844 80.0964 61.2547 79.5531 61.0844 79.2176H59.9693C59.8808 79.7199 60.0983 80.0983 59.8404 80.5148C57.1811 80.6359 54.6083 80.9313 52.1231 81.4374L50.9609 79.2176C50.5366 79.2176 50.0593 79.1375 49.763 79.2624L50.8329 81.7262L50.7049 81.8482C48.7827 82.3992 46.8927 83.0553 45.0437 83.8136L44.8734 83.7278C43.6698 82.4335 42.5114 81.02 41.5666 79.5998C41.354 78.8859 40.4957 79.3034 40.0233 79.2195C41.049 81.0591 42.4258 82.6851 43.7959 84.3578C42.6384 85.0279 41.4848 85.7752 40.2783 86.3232C37.6547 84.3438 35.3677 81.9614 33.5039 79.2662C32.9882 79.1842 32.6486 79.2214 32.13 79.2662C35.2184 84.0262 40.0233 88.1999 45.0418 90.6638C45.0418 90.6638 45.0418 90.6266 45.088 90.6266C45.1246 90.6266 45.2102 90.7038 45.1246 90.7476C48.5151 92.3765 52.1202 93.5451 55.9341 94.0483C69.1029 95.7583 81.6712 90.2082 88.9585 79.2662C88.503 79.2197 88.044 79.2191 87.5884 79.2643ZM69.7071 83.0215L69.8331 82.9377C71.6824 83.3551 73.4373 83.9404 75.0681 84.7315C73.6942 86.2727 71.9354 87.6118 70.3075 88.7384C69.3222 89.3208 68.3322 89.9537 67.3018 90.4512L65.4612 89.6582L65.5872 89.3694C67.1343 87.3249 68.5073 85.2347 69.7071 83.0215ZM61.2547 81.7682C63.7015 81.8139 66.1472 82.0637 68.4169 82.6041L68.4621 82.7308C67.2633 84.9831 65.7585 87.1591 64.1315 89.2007C63.3984 89.2865 62.7153 88.9977 61.9869 88.9529L61.2538 88.8671C61.1701 86.4033 61.1249 84.232 61.2547 81.7682ZM52.9804 82.5193C55.2106 82.1018 57.5255 81.7682 59.926 81.7682L59.9703 88.8318C59.0678 89.0339 58.0816 89.0339 57.2234 89.2484C55.4646 87.1972 54.0079 84.9831 52.7658 82.6851L52.9804 82.5193ZM46.0713 84.7763C47.7483 83.9804 49.5042 83.3923 51.3034 82.9367L51.4775 82.9806C52.7177 85.2776 54.2639 87.4469 55.8071 89.6182C55.2116 89.9546 54.4784 90.1557 53.88 90.4951C50.9795 89.0756 48.3402 87.1837 46.0723 84.8983V84.7763H46.0713ZM51.6065 91.9152C48.0033 90.9935 44.655 89.4075 41.5675 87.2401V87.1105C42.597 86.49 43.6304 85.8199 44.7416 85.3558C47.1883 87.7424 49.7168 89.5381 52.4618 91.2461C52.2482 91.4968 51.9057 91.7484 51.6065 91.9152ZM67.5173 92.4547C62.9722 93.4212 57.9084 93.4583 53.3643 92.3746C53.2777 92.1669 53.5788 92.1221 53.7068 92.0001C57.6958 89.4504 63.9122 89.4504 67.8194 92.2031C67.9464 92.4547 67.6039 92.3746 67.5173 92.4547ZM71.6362 91.29L69.6205 91.9143C69.2761 91.7475 68.9778 91.4968 68.6747 91.2452L68.7613 91.1175C71.5072 89.5372 73.9934 87.6109 76.3535 85.3148C77.5119 85.7732 78.628 86.4033 79.6604 87.1095C77.256 88.9977 74.4668 90.2444 71.6362 91.29ZM33.4202 43.9803C34.4811 42.5259 35.6416 41.1454 36.8935 39.8485C38.0048 38.8048 39.0381 37.8031 40.2408 37.0482C41.3568 37.7573 42.599 38.3483 43.6708 39.0135C42.3421 40.6339 40.9691 42.2694 39.9829 44.0184C40.2812 44.149 40.8411 44.108 41.2712 44.0184C42.3421 42.4763 43.4966 40.9322 44.8744 39.553C46.714 40.2231 48.518 40.9303 50.4076 41.4335L50.5741 41.5994L49.5061 44.0184C49.9795 44.108 50.2797 44.0642 50.7482 44.0184C51.1331 43.3131 51.4314 42.522 51.8605 41.8081C54.3514 42.3533 56.9684 42.644 59.6278 42.725C59.9684 43.0215 59.7124 43.6448 59.8414 44.0184H60.9988C61.1249 43.6086 60.9555 43.1435 61.1249 42.7717C63.6149 42.6421 66.2299 42.3914 68.6401 41.8062L68.8489 41.8501L70.0073 44.0165C70.3941 44.0165 70.9078 44.1061 71.208 43.9308L70.1333 41.5155L70.2228 41.4316C72.1923 40.9303 74.0396 40.1792 75.9263 39.4291C77.2599 40.8064 78.5 42.4343 79.619 44.0156C80.0885 44.0156 80.5609 44.0613 80.9044 43.9298C80.3747 42.9976 79.7568 42.1174 79.059 41.3011C78.4926 40.5014 77.8606 39.7494 77.1694 39.0526V38.8363L80.1722 37.1273L80.6052 36.9605C83.2166 38.9186 85.5018 41.2703 87.3777 43.9298C87.8924 43.9298 88.3225 44.1052 88.7525 43.8945C82.999 35.384 73.522 29.9083 63.2762 29.12L63.231 29.2011L63.1434 29.12C61.9869 28.9971 60.5659 28.9485 59.3237 29.0714C58.8533 29.0352 58.2971 29.0714 57.7381 29.12C47.4462 29.9083 37.9682 35.1305 32.0463 44.0203C32.4754 43.9803 32.9901 44.15 33.4202 43.9803ZM51.2226 40.3117L51.0513 40.3479C49.2906 39.8933 47.5732 39.3452 45.9433 38.638L46.0261 38.3873C48.3852 36.1751 50.8724 34.3365 53.6173 32.9202C54.2639 33.1708 54.9066 33.3777 55.5493 33.6741L55.4232 34.0001C53.7905 36.0093 52.507 38.1757 51.2226 40.3117ZM59.7548 41.4355C58.5569 41.6023 57.4841 41.3983 56.2786 41.3058C55.1259 41.1381 53.6645 41.017 52.507 40.6358C53.7511 38.3502 55.2116 36.1332 56.9684 34.0925L59.7144 34.4633C59.8414 36.6307 59.7548 39.1375 59.7548 41.4355ZM61.0835 41.4803C60.9988 39.2604 61.0431 36.8004 61.0835 34.5033C61.9446 34.3813 62.8836 34.2517 63.7438 34.1287C65.416 36.2132 67.0497 38.3502 68.1658 40.6358C65.8466 41.1916 63.4695 41.4751 61.0835 41.4803ZM74.7698 38.5532C73.0938 39.2595 71.3764 39.9286 69.5349 40.3117C68.2062 38.0985 66.7485 35.8863 65.1139 33.7484C65.7152 33.4215 66.4483 33.1708 67.0901 32.8382C69.8832 34.2145 72.582 36.1751 74.8526 38.4226L74.7698 38.5532ZM69.2761 31.4142C72.8793 32.3349 76.2679 33.9191 79.3563 36.0903L79.2707 36.2571L76.3141 37.8831H76.0957C73.826 35.6366 71.1676 33.6741 68.4621 32.1253C68.5477 31.8326 68.9788 31.622 69.2761 31.4142ZM67.5625 30.9948V31.0835C63.8285 33.7484 57.7824 34.0001 53.8386 31.5362C53.6173 31.3694 53.194 31.2884 53.1478 30.9958C57.6968 29.9569 63.0549 29.873 67.5625 30.9948ZM41.3973 36.1751C44.1018 34.2145 47.1027 32.7534 50.2778 31.7507C50.4076 31.6201 50.4904 31.4971 50.6597 31.4971V31.5829C51.0022 31.6649 51.2611 31.2865 51.5603 31.5343C51.8191 31.7507 52.1222 31.9156 52.3338 32.1234C49.6764 33.7484 47.0585 35.6728 44.656 38.0061C43.4976 37.5962 42.4296 36.9662 41.3963 36.2571L41.3973 36.1751ZM59.799 69.5719C55.7677 70.6594 51.39 69.8302 48.4747 66.8193C48.1332 66.4018 47.9167 65.9043 47.5722 65.4887L41.784 65.5287C41.6926 68.9095 41.6522 72.7935 41.784 76.1352L48.2149 76.0942L48.3006 74.0888C49.0328 74.4224 49.763 74.8389 50.4904 75.2135C54.9508 77.053 60.6929 77.4705 65.1119 75.2135C68.3312 73.4645 70.0477 70.0837 69.5743 66.4437C69.1048 62.899 65.6719 59.6822 62.2005 58.8082L51.8181 55.8411L51.0503 55.4636C50.7069 55.1739 50.4913 54.8003 50.5751 54.337C51.39 52.9626 53.2796 53.3801 54.6949 53.4173C57.6968 53.8357 60.7843 54.8374 62.544 57.5529C64.4288 57.5529 66.6158 57.5891 68.6728 57.5091C68.7604 54.0864 68.6391 51.0821 68.5881 47.6156C66.6581 47.5717 64.298 47.5717 62.3708 47.6594C62.2842 48.156 62.4536 48.8632 62.239 49.3665L60.2676 48.3218C55.5474 46.3603 48.9413 46.1554 44.6541 49.2035C41.8648 51.2041 41.0095 54.7984 41.7388 57.9704C42.294 60.9718 45.2102 63.1869 47.9994 64.2277C51.8162 65.5621 55.8033 66.5286 59.6701 67.821C60.053 67.9907 60.5668 68.3691 60.4841 68.8275C60.486 69.1983 60.0973 69.4127 59.799 69.5719Z" fill="#37538D"/>
</svg>
