<?xml version="1.0" encoding="UTF-8"?>
<svg version="1.1" xmlns="http://www.w3.org/2000/svg" width="124" height="124">
<path d="M0 0 C1.26779297 -0.02449219 2.53558594 -0.04898438 3.84179688 -0.07421875 C13.034413 -0.10278203 20.00082895 1.25055263 27.6875 6.375 C31.41211575 10.09961575 31.9213256 13.04137251 31.99104309 18.31552124 C31.99013168 19.08538361 31.98922028 19.85524597 31.98828125 20.6484375 C31.99256638 21.44980133 31.9968515 22.25116516 32.00126648 23.07681274 C32.00700053 24.76962338 32.00751685 26.46245866 32.00317383 28.15527344 C32.00001938 30.734156 32.02346427 33.31188463 32.04882812 35.890625 C32.0511019 37.53906106 32.05180425 39.18750019 32.05078125 40.8359375 C32.059991 41.6017514 32.06920074 42.36756531 32.07868958 43.15658569 C32.03187665 48.62344211 31.07149697 52.99665231 27.0390625 57.01953125 C26.18441406 57.59767578 26.18441406 57.59767578 25.3125 58.1875 C24.74789062 58.58582031 24.18328125 58.98414063 23.6015625 59.39453125 C18.76559541 61.87173072 13.37127045 61.53685493 8.0625 61.5859375 C6.36978179 61.61399372 4.67707357 61.64265809 2.984375 61.671875 C0.33138176 61.71317438 -2.32142231 61.75008837 -4.97460938 61.77636719 C-7.54595732 61.80400584 -10.11647374 61.84985706 -12.6875 61.8984375 C-13.47721191 61.90169037 -14.26692383 61.90494324 -15.08056641 61.90829468 C-19.71039401 62.01134819 -22.53271408 62.71092336 -26.3125 65.375 C-26.9725 65.375 -27.6325 65.375 -28.3125 65.375 C-30.06076754 69.68739328 -31.42079337 73.37529406 -31.62890625 78.04296875 C-31.67080078 78.93564453 -31.71269531 79.82832031 -31.75585938 80.74804688 C-31.79517578 81.67681641 -31.83449219 82.60558594 -31.875 83.5625 C-31.91818359 84.50287109 -31.96136719 85.44324219 -32.00585938 86.41210938 C-32.11188665 88.73292854 -32.21395029 91.05385325 -32.3125 93.375 C-34.85533234 93.48371967 -37.39345088 93.56262401 -39.9375 93.625 C-40.65035156 93.65851563 -41.36320312 93.69203125 -42.09765625 93.7265625 C-47.3216957 93.82241643 -50.16300228 92.80843395 -54.3125 89.375 C-55.921875 87.69921875 -55.921875 87.69921875 -57.0625 86.0625 C-57.64257812 85.26392578 -57.64257812 85.26392578 -58.234375 84.44921875 C-61.89031464 77.4155088 -61.6787255 70.26543321 -61.6875 62.5 C-61.71199219 61.36691406 -61.73648438 60.23382813 -61.76171875 59.06640625 C-61.79148585 50.50340274 -59.97946195 44.81993658 -55.625 37.5625 C-49.3003381 31.57971171 -41.95135173 30.80031453 -33.58984375 30.984375 C-32.11071251 30.99286469 -32.11071251 30.99286469 -30.60169983 31.00152588 C-27.48395101 31.02373266 -24.36739539 31.07389911 -21.25 31.125 C-19.12306359 31.1450853 -16.99610899 31.1633325 -14.86914062 31.1796875 C-9.68314122 31.22354591 -4.49802218 31.29246338 0.6875 31.375 C0.6875 30.715 0.6875 30.055 0.6875 29.375 C-0.66782837 29.38285522 -0.66782837 29.38285522 -2.05053711 29.39086914 C-5.39201489 29.40787686 -8.73344692 29.42043333 -12.07495117 29.42993164 C-13.52320073 29.43497101 -14.97144517 29.44180253 -16.41967773 29.45043945 C-18.49724588 29.46252247 -20.57474697 29.46823211 -22.65234375 29.47265625 C-23.90394287 29.47789307 -25.15554199 29.48312988 -26.44506836 29.48852539 C-29.3125 29.375 -29.3125 29.375 -30.3125 28.375 C-31.51762671 11.42420132 -31.51762671 11.42420132 -26.3125 5.375 C-18.66355172 -0.62012163 -9.2334414 0.00930322 0 0 Z M-20.3125 12.375 C-20.5627157 15.45865871 -20.5627157 15.45865871 -20.3125 18.375 C-18.04648135 19.66542763 -18.04648135 19.66542763 -15.3125 20.375 C-12.98738528 19.11147948 -12.98738528 19.11147948 -11.3125 17.375 C-11.88702746 13.44424356 -11.88702746 13.44424356 -14.3125 10.375 C-17.49740007 10.0976499 -17.49740007 10.0976499 -20.3125 12.375 Z " fill="#3672A4" transform="translate(61.3125,-0.375)"/>
<path d="M0 0 C2.72977064 -0.08126109 5.4571017 -0.14061663 8.1875 -0.1875 C8.95642578 -0.21263672 9.72535156 -0.23777344 10.51757812 -0.26367188 C15.15260383 -0.32335032 18.26770105 -0.08905704 22 3 C22 3.66 22 4.32 22 5 C22.66 5 23.32 5 24 5 C24.64834654 6.269553 25.29357815 7.54069706 25.9375 8.8125 C26.47697266 9.87404297 26.47697266 9.87404297 27.02734375 10.95703125 C29.93187162 17.05770626 29.26386571 23.49776773 29.3125 30.125 C29.35600586 32.06632812 29.35600586 32.06632812 29.40039062 34.046875 C29.45722376 42.63304992 28.84610303 49.4343035 23.18359375 56.15625 C22.60738281 56.5996875 22.03117187 57.043125 21.4375 57.5 C20.85871094 57.9640625 20.27992187 58.428125 19.68359375 58.90625 C16.59025185 60.91584566 13.92442304 61.12312178 10.3449707 61.11352539 C9.40422195 61.11344986 8.46347321 61.11337433 7.49421692 61.11329651 C6.48163315 61.10813522 5.46904938 61.10297394 4.42578125 61.09765625 C3.38681198 61.0962413 2.34784271 61.09482635 1.27738953 61.09336853 C-2.04426948 61.08776656 -5.36586133 61.07521372 -8.6875 61.0625 C-10.93815007 61.05748525 -13.18880119 61.0529223 -15.43945312 61.04882812 C-20.95965837 61.03779649 -26.47982439 61.02105643 -32 61 C-32 61.99 -32 62.98 -32 64 C-22.1 64 -12.2 64 -2 64 C-1.9175 67.031875 -1.835 70.06375 -1.75 73.1875 C-1.71358398 74.13391357 -1.67716797 75.08032715 -1.63964844 76.05541992 C-1.58520729 80.19163018 -1.63805977 82.41938755 -3.875 86.0078125 C-12.00322852 93.62802674 -21.9005858 93.34127366 -32.4375 93.3125 C-33.61376953 93.32861328 -34.79003906 93.34472656 -36.00195312 93.36132812 C-44.21953588 93.36592152 -52.49878883 92.90205295 -58.9375 87.1875 C-59.48277344 86.72730469 -60.02804688 86.26710938 -60.58984375 85.79296875 C-65.17574572 79.96214049 -64.33854967 72.28099748 -64.31567383 65.27929688 C-64.31252967 63.26897101 -64.335955 61.26014282 -64.36132812 59.25 C-64.36511159 51.65280374 -63.77644626 45.10551741 -61 38 C-60.34 38 -59.68 38 -59 38 C-59 37.34 -59 36.68 -59 36 C-53.21344272 31.98155745 -48.17221052 31.85083183 -41.2890625 31.7890625 C-39.55207388 31.76099551 -37.81509484 31.73233106 -36.078125 31.703125 C-33.35058852 31.66188795 -30.62323107 31.62498291 -27.89550781 31.59863281 C-25.25548841 31.57094364 -22.61627055 31.52507836 -19.9765625 31.4765625 C-19.16700104 31.47330963 -18.35743958 31.47005676 -17.52334595 31.46670532 C-12.62812351 31.36103455 -9.26042512 30.66286758 -5 28 C-1.6612505 24.31586262 -0.89037699 20.98745772 -0.68359375 16.11328125 C-0.62075195 14.7065918 -0.62075195 14.7065918 -0.55664062 13.27148438 C-0.51732422 12.29501953 -0.47800781 11.31855469 -0.4375 10.3125 C-0.37272461 8.83040039 -0.37272461 8.83040039 -0.30664062 7.31835938 C-0.20058346 4.87904454 -0.09852286 2.43962887 0 0 Z M-17 73 C-19.33454661 74.83358335 -19.33454661 74.83358335 -21 77 C-19.96471824 80.69273111 -19.96471824 80.69273111 -17.125 83 C-14.25529451 83 -13.09536549 81.87086204 -11 80 C-11.33 78.02 -11.66 76.04 -12 74 C-14.29294488 73.14025199 -14.29294488 73.14025199 -17 73 Z " fill="#FCD041" transform="translate(95,31)"/>
</svg>
