<svg xmlns="http://www.w3.org/2000/svg" width="1200" height="1200"><path fill="#1b5ab7" d="M0 0h1200v1200H0z"/><path fill="#fefefe" d="M0 0h1200v1200H0zm446.966 130.332c-5.4.528-10.805 1.006-16.211 1.47-109.7 9.037-109.7 9.037-212.755 45.198v2l-1.75.328c-5.816 1.737-10.952 6.726-14.25 11.672-1.738 3.683-2.25 6.571-2.252 10.631l-.016 3.428.014 3.76-.01 4.015c-.009 3.693-.005 7.386 0 11.079.005 4.012-.002 8.024-.008 12.036q-.013 10.556-.007 21.11c.006 10.465 0 20.929-.009 31.393q-.02 29.663-.014 59.324a114045 114045 0 0 1-.01 62.29 224603 224603 0 0 0-.008 92.15v3.51l.005 28.23q.007 55.053-.021 110.106a206079 206079 0 0 0-.027 136.82v3.278q.002 24.517-.015 49.033-.019 27.878-.002 55.754.011 15.607-.008 31.215-.012 10.42.006 20.84c.006 3.961.008 7.921-.004 11.882q-.014 5.406.007 10.812c.004 1.904-.007 3.809-.018 5.713.078 12.195 3.313 21.068 11.67 30.029 58.97 56.666 177.124 63.895 288.04 72.75l3.723.257c31.721 2.168 63.307 2.757 95.089 2.743h5.965c22.856-.006 45.697-.072 68.535-1.063l2.783-.119c11.7-.52 23.35-1.458 35.013-2.51 5.072-.457 10.146-.863 15.224-1.242 68.043-5.109 136.627-15.04 201.355-37.254l2.49-.834c18.58-6.24 37.27-14.724 52.51-27.166l2.59-2.012c7.512-6.162 13.634-14.263 15.41-23.988.291-4.358.27-8.707.254-13.073l.01-4.025c.009-3.693.005-7.385 0-11.078-.005-4.015.002-8.03.008-12.046q.013-10.559.007-21.117c-.006-10.467 0-20.934.009-31.401q.02-29.67.014-59.339a114074 114074 0 0 1 .01-62.297q.013-46.08.008-92.16v-3.51l-.003-17.616v-3.534l-.002-7.075q-.007-55.064.021-110.127a206208 206208 0 0 0 .027-136.847v-3.277q-.002-24.525.015-49.05.019-27.877.002-55.755-.011-15.61.008-31.223.012-10.417-.006-20.835c-.006-3.962-.008-7.923.004-11.885q.014-5.403-.007-10.805c-.004-1.91.007-3.82.018-5.73-.043-8.01-.043-8.01-3.397-15.195l-1.219-1.871c-16.632-20.334-51.914-27.575-76.075-33.463-2.478-.61-4.946-1.25-7.413-1.9-40.963-10.576-84.15-15.61-126.193-19.568q-3.543-.335-7.085-.674c-24.15-2.295-48.286-4.307-72.521-5.407-2.592-.122-5.183-.255-7.774-.39-83.431-4.305-168.538-4.546-251.754 3.605"/><path fill="#2c7ad3" d="M701.447 126.87c3.163.161 6.326.3 9.49.437C789.468 130.761 874.093 137.417 949 163l2.243.752c39.831 13.484 39.831 13.484 47.838 29.397 1.173 3.639 1.199 7.059 1.18 10.84l.011 2.42c.01 2.675.007 5.35.003 8.024q.007 2.878.015 5.756c.014 5.211.014 10.422.012 15.633q0 6.525.008 13.054.016 15.4.006 30.802c-.006 10.588.006 21.175.027 31.763q.027 13.64.02 27.28c-.001 5.429.001 10.858.015 16.288q.018 7.66-.002 15.323-.004 2.808.009 5.616c.01 2.561.002 5.122-.01 7.683l.022 2.23c-.055 5.287-1.33 9.271-3.397 14.139h-2l-.937 1.875L992 406h-2v2c-3.462 3-3.462 3-6 3v2c-12.685 9-12.685 9-19 9v2l-1.871.734c-4.138 1.638-8.232 3.297-12.254 5.204-4.863 2.205-9.916 3.713-15.028 5.224-3.251.972-6.258 2.02-9.374 3.397-3.654 1.516-7.02 2.26-10.91 2.941-5.48 1.01-10.41 2.384-15.563 4.5-5.842 1.825-11.662 2.875-17.684 3.855-3.255.548-6.351 1.155-9.523 2.09-5.589 1.554-11.265 2.461-16.98 3.43l-3.847.657c-58.671 9.939-117.433 14.965-176.814 17.813-2.877.141-5.752.295-8.629.452-20.986 1.08-42.014.991-63.023 1.016l-3.163.004c-30.739.04-61.389-.515-92.087-2.13l-2.433-.126c-28.958-1.509-57.948-3.51-86.76-6.832-2.057-.236-4.114-.463-6.172-.69-17.82-1.99-35.54-4.724-53.237-7.591q-4.21-.677-8.421-1.343c-8.128-1.304-16.115-2.629-24.02-4.975-3.352-.957-6.7-1.466-10.144-2.005-18.047-3.019-35.558-8.397-53.063-13.625v-2l-1.914-.191c-7.396-1.013-13.243-3.627-19.727-7.153-3.281-1.754-3.281-1.754-6.754-2.562-4.525-1.373-8.082-3.558-12.042-6.094l-2.217-1.367c-1.822-1.15-3.59-2.385-5.346-3.633v-2l-4-1v-2l-1.836-.746c-2.545-1.475-3.36-2.775-4.789-5.316-1.618-3.054-1.618-3.054-4.375-4.938-1.271-4.254-1.146-8.6-1.14-13.002l-.01-2.425q-.01-4.019-.011-8.038l-.015-5.766q-.019-7.829-.024-15.656-.005-4.89-.012-9.781-.02-15.3-.027-30.601a17005 17005 0 0 0-.05-35.33q-.033-13.654-.034-27.31 0-8.156-.025-16.311-.023-7.669-.01-15.338.002-2.814-.013-5.628c-.013-2.562-.007-5.123.004-7.685l-.025-2.248c.077-8.036 3.904-13.406 9.392-18.881 2.932-2.415 5.072-4 9-4v-2c69.965-34.551 153.478-40.583 230.178-46.77 2.91-.237 5.82-.483 8.73-.73a1304 1304 0 0 1 48.155-3.125l2.097-.099c64.568-2.999 129.735-2.771 194.287.594"/><path fill="#103f8c" d="M999 755h1a67254 67254 0 0 1 .167 97.232c.013 10.8.037 21.599.064 32.398q.043 16.63.051 33.26c.004 6.225.013 12.45.035 18.675q.03 8.79.022 17.583.001 3.224.019 6.447c.015 2.94.01 5.879.003 8.819l.026 2.561c-.09 11.979-5.354 20.487-13.348 29.15-17.043 16.194-41.121 25.489-63.039 32.875l-3.169 1.074c-38.233 12.865-77.642 20.607-117.502 26.435a884 884 0 0 0-11.013 1.703c-21.882 3.357-43.867 5.352-65.941 6.913q-5.286.38-10.57.765-3.243.236-6.485.464c-4.186.301-8.352.619-12.513 1.167-4.063.511-8.09.803-12.178 1.014l-2.525.13c-26.69 1.32-53.364 1.557-80.08 1.581q-4.266.006-8.532.02c-27.218.068-54.318-.731-81.492-2.266l-3.628-.202a1148 1148 0 0 1-18.06-1.173c-.855-.06-1.71-.122-2.591-.185-27.741-1.987-55.366-4.637-82.84-9-3.536-.54-7.078-.987-10.627-1.429-39.171-4.944-78.881-13.224-116.254-26.011l-2.723-.931c-19.5-6.796-40.12-14.972-56.277-28.069l-3.004-2.426c-8.275-7.085-15.2-15.413-16.178-26.674a202 202 0 0 1-.059-7.17l-.005-2.765c-.003-3.046.008-6.092.019-9.139v-6.564c-.002-5.933.01-11.867.024-17.8.013-6.203.014-12.407.016-18.61q.01-16.614.04-33.229.026-15.08.037-30.159l.002-2.004.007-9.952q.032-41.254.101-82.508c1.164 1.746 2.294 3.517 3.332 5.34 2.756 4.836 5.045 8.397 9.668 11.66v2l3 1 2 2.125c5.715 5.958 13.452 9.8 21 12.875q2.168 1.198 4.313 2.438c3.957 2.25 7.973 3.91 12.222 5.527 2.448 1.028 4.626 2.238 6.903 3.597 4.078 2.343 8.043 3.563 12.593 4.688 4.329 1.094 8.568 2.453 12.828 3.785 3.368 1.035 6.753 1.998 10.141 2.965l5.273 1.586c12.09 3.574 23.983 6.412 36.49 8.083 4.187.578 7.696 1.09 11.577 2.82 5.665 2.34 11.541 2.728 17.598 3.448 9.384 1.193 18.288 2.696 27.41 5.188 7.112 1.704 14.379 2.24 21.652 2.875l2.555.225 2.632.232 2.693.238a2882 2882 0 0 0 5.53.483c6.85.61 13.649 1.468 20.465 2.385 9.043 1.196 17.993 1.806 27.107 2.093 7.197.235 14.345.715 21.518 1.344l8.914.777c28.534 2.462 57.279 2.402 85.899 2.348l4.77-.007q15.959-.025 31.917-.118l3.46-.019c28.188-.173 56.21-1.91 84.313-4.043l3.22-.24 2.981-.233 2.588-.2c2.523-.274 4.955-.747 7.438-1.265q2.356-.254 4.719-.43l2.782-.216 2.999-.229c9.615-.77 19.216-1.65 28.813-2.625l3.625-.359c6.25-.645 12.39-1.488 18.561-2.672 2.974-.558 5.954-.988 8.95-1.406 29.357-4.108 59.292-9.598 87.719-17.985a141 141 0 0 1 8.52-2.117c3.888-.84 7.538-2.002 11.269-3.375C916 811 916 811 920 811v-2l1.836-.516c6.231-1.802 12.18-3.99 18.164-6.484l2.945-1.191c12.39-5.054 23.743-11.009 34.613-18.812C981.786 779 981.786 779 984 779l1-3h3v-2l3-2c3.395-5.286 6.356-10.917 8-17"/><path fill="#42a3ee" d="M701.447 126.87c3.163.161 6.326.3 9.49.437C789.468 130.761 874.093 137.417 949 163l2.243.752c38.943 13.183 38.943 13.183 48.007 29.498 1.07 3.924.909 7.708.75 11.75h-2l-.187 2.125c-1.096 3.877-3.017 6.014-5.813 8.875-2.312.875-2.312.875-4 1v2c-9.064 5.428-18.144 10.13-28 14l-2.305.92c-2.476.981-4.958 1.94-7.445 2.893l-2.327.916c-5.62 2.1-10.942 2.928-16.923 3.271v2c-12.596 2.918-25.208 5.717-37.877 8.3l-2.865.587-2.496.506a187 187 0 0 0-6.612 1.6c-3.908.986-7.816 1.645-11.806 2.226l-2.138.313q-2.228.326-4.457.645-3.324.478-6.647.968a932 932 0 0 1-25.924 3.408c-3.193.351-3.193.351-6.178 1.447-2.64.326-5.27.613-7.918.867l-2.412.24q-3.928.389-7.857.768l-5.502.539q-5.557.543-11.116 1.08c-4.462.433-8.922.88-13.382 1.33-60.73 6.05-121.514 7.357-182.5 7.364l-3.526.001q-10.183.005-20.365-.015a4432 4432 0 0 0-6.266-.007c-10.597-.008-21.122-.171-31.694-.923-4.814-.34-9.628-.514-14.45-.674l-6.006-.216-3.116-.111c-34.275-1.259-68.337-3.667-102.46-7.105l-5.922-.594q-5.57-.562-11.137-1.142l-3.34-.337c-5.68-.601-11.219-1.425-16.806-2.609-3.05-.625-6.112-1.034-9.202-1.42-1.24-.16-2.479-.318-3.756-.481l-3.892-.492c-10.537-1.364-20.966-2.908-31.375-5.063q-3.7-.743-7.4-1.48a1902 1902 0 0 1-5.172-1.042c-3.89-.787-7.78-1.553-11.694-2.224-8.181-1.41-15.91-3.417-23.78-5.996-3.889-1.265-7.807-2.302-11.766-3.32-6.231-1.633-12.18-3.63-18.188-5.938q-2.046-.76-4.094-1.516l-4.343-1.609-2.082-.769c-3.252-1.215-6.42-2.462-9.481-4.106v-2l-2.5-.625c-6.927-2.721-12.154-7.4-16.5-13.375v-2h-2c-1.702-5.107-1.7-10.053.125-15.125 3.79-5.81 7.766-10.481 13.875-13.875h3v-2c69.965-34.551 153.478-40.583 230.178-46.77 2.91-.237 5.82-.483 8.73-.73a1304 1304 0 0 1 48.155-3.125l2.097-.099c64.568-2.999 129.735-2.771 194.287.594"/><path fill="#fdfefd" d="M613.75 546.688c1.238.005 2.477.01 3.753.017 24.672.327 48.28 8.953 65.9 26.709 21.01 22.127 28.584 51.051 27.882 80.969C710.18 681.579 700.893 708.837 681 728c1.415 3.224 3.114 5.357 5.625 7.813l1.914 1.894a215 215 0 0 0 6.234 5.555c4.995 4.347 9.593 9.053 14.227 13.777a208 208 0 0 0 12.246 11.439 108 108 0 0 1 5.754 5.397l1.75 1.742C730 777 730 777 730 778c-9.95.785-19.899 1.32-29.875 1.625l-2.204.068c-31.442.86-31.442.86-42.468-9.25-4.741-4.872-8.486-10.49-12.311-16.084-1.903-2.526-1.903-2.526-4.51-2.98-2.41.255-4.348.826-6.632 1.621-16.73 3.342-36.85 2.532-53-3l-1.968-.666C563.699 744.727 553.169 737.75 543 728l-1.934-1.777c-18.19-17.219-26.406-43.616-27.355-68.078-.623-28.449 5.573-57.564 25.289-79.145l1.41-1.555c7.446-8.112 14.85-14.183 24.59-19.445l2.031-1.195c4.357-2.427 9.047-3.913 13.782-5.43l1.938-.626c10.287-3.16 20.26-4.113 30.999-4.062"/><path fill="#fcfdfd" d="m430.543 549.867 3.756-.004 3.889.012 3.83-.012c10.541.011 20.61.522 30.857 3.074l2.18.514c3.838.928 7.257 2.074 10.945 3.549v41l-17-8c-10.004-3.363-18.705-4.395-29.25-4.562l-3.263-.083c-8.092.04-14.27 2.077-21.487 5.645l-2.267 1.006c-2.524 1.448-2.857 3.299-3.733 5.994l-1 2c-.603 5.83.018 9.32 3.418 14.133 7.967 9.403 21.38 13.888 32.273 19.023l3.585 1.701q3.522 1.67 7.055 3.311c16.728 7.922 30.142 18.076 37.763 35.305 4.805 14.036 3.201 32.463-2.906 45.777-7.347 13.316-18.612 21.817-33.137 26.36-29.398 8.43-62.549 8.378-91.051-3.61l-3-2c-.36-1.873-.36-1.873-.34-4.174v-2.609l.047-2.819.013-2.883c.017-3.047.054-6.093.092-9.14q.024-3.094.042-6.187.051-7.595.146-15.188l2.23 1.437 2.957 1.895 2.918 1.874c13.848 8.581 28.194 13.172 44.457 13.044l2.999.023c8.863-.023 16.873-1.374 24.439-6.273 4.438-4.665 5.33-8.486 5.2-14.734-.566-6.429-4.635-10.237-9.333-14.207-7.54-5.414-16.309-8.921-24.746-12.692C392.746 658.243 372.626 649.122 364 627l-1.023-2.57c-4.613-13.837-2.729-28.877 3.156-41.946C373.229 568.668 385.639 560.225 400 555c5.921-1.664 11.95-2.904 18-4l2.845-.54c3.278-.478 6.386-.59 9.698-.593"/><path fill="#fdfefd" d="M749 553h44v159h71v35H749z"/><path fill="#1b5ab8" d="M640.438 593.313c13.894 10.595 19.462 25.675 22.152 42.489.658 5.133.793 10.215.785 15.385l-.005 3.284c-.14 9.319-1.552 17.672-4.37 26.529l-.84 2.836C654.714 693.904 647.384 703.8 638 709c-13.054 6.237-26.723 8.352-40.875 4.5-13.464-4.78-22.604-14.512-28.769-27.071-9.11-19.627-8.764-44.86-2.477-65.284 5.067-13.674 13.504-25.037 26.816-31.442 15.466-6.371 33.604-5.732 47.742 3.61"/><path fill="#effdfe" d="m985 178 4 1v2l1.77.758c2.527 1.407 4.023 2.939 5.918 5.117l1.824 2.055c2.633 3.663 2.613 7.185 2.614 11.604l.009 3.44-.006 3.788.005 4.033q.006 5.573 0 11.144 0 6.05.007 12.1.007 10.614.005 21.228 0 15.782.008 31.565.013 29.822.013 59.644a259106 259106 0 0 0 .01 62.603q.009 46.296.009 92.59v31.894q-.001 55.346.02 110.69a316271 316271 0 0 1 .023 137.498v3.292q0 26.281.015 52.564.013 26.386.003 52.774-.006 15.696.007 31.392.009 10.466-.002 20.933-.008 5.975.003 11.95.011 5.426-.003 10.851c-.003 1.928.004 3.857.012 5.785l-.014 3.424v2.969C1001 981 1001 981 999 983l.001-2.068c.051-74.256.098-148.512.126-222.768l.001-3.36a1284844 1284844 0 0 0 .038-111.28q.02-57.194.063-114.387a207477 207477 0 0 0 .056-134.1v-3.298q.008-26.31.035-52.617.027-26.43.02-52.857-.004-15.714.022-31.43.017-10.486.003-20.973a2656 2656 0 0 1 .01-11.964q.017-5.44-.003-10.877c-.003-1.924.009-3.847.021-5.77-.055-9.256-1.979-14.39-8.393-21.251a69 69 0 0 0-3.312-2.25L985 180z"/><path fill="#d6edfa" d="M749 553h44v159h71v35H749zm1 1q-.035 37.108-.052 74.215a63212 63212 0 0 1-.023 34.457q-.015 15.012-.02 30.024 0 7.952-.01 15.905-.01 7.478-.008 14.957 0 2.751-.006 5.502-.006 3.744-.001 7.486l-.01 2.223c-.045 3.74-.045 3.74 1.13 7.231h112v-33h-72l.035-34.527.014-21.588q.008-17.153.026-34.305.015-12.489.02-24.979 0-6.617.01-13.234.01-6.222.008-12.442 0-2.29.006-4.58.006-3.114.001-6.226l.003-3.528c.171-2.52.171-2.52-1.123-3.591a246 246 0 0 0-8.848-.098l-2.686.005c-2.843.005-5.686.018-8.529.03q-2.883.009-5.767.014-7.085.017-14.17.049"/><path fill="#1f59ac" d="m439.5 584.438 3.43.03c15.552.388 28.891 4.322 42.07 12.532l-1 3-1-2c-2.307-.599-4.617-.957-6.969-1.34L474 596l-1-3-2.312.125C468 593 468 593 465 591h-4v-2l-1.828.035-2.422.028-2.39.035c-2.267-.094-4.189-.466-6.36-1.098v2l-3.187-.062c-3.658-.058-3.658-.058-6.563.625C436 591 436 591 433 590l-1-2c-3.417-.167-3.417-.167-7 0l-2 2-3.375.875c-3.758 1.166-5.227 2.082-7.625 5.125l-1 3h-2c.087 1.626.195 3.25.313 4.875l.175 2.742c.3 2.745.3 2.745 3.512 4.383v2h2l.688 1.813c1.65 2.75 3.51 3.712 6.312 5.187l-1 3c-4.618-3.262-8.767-6.274-12-11l-1.25-1.812c-1.399-4.081-1.533-8.093-.027-12.122 3.767-7.092 8.897-9.625 16.154-12.2 5.206-1.444 10.248-1.502 15.623-1.428"/><path fill="#2b5da9" d="m576 605 1 3h-3l.625 1.75c.375 2.25.375 2.25-.312 4.438C573 616 573 616 570.875 616.75L569 617l.125 3.313C569 624 569 624 567 627c-.53 2.14-.53 2.14-.75 4.438l-.297 2.308c-.124 2.27-.124 2.27 1.036 4.092 1.178 2.518 1.255 4.236 1.241 7.006l-.005 2.777-.038 2.879-.001 2.879c-.026 4.05-.057 7.707-1.186 11.621h-2q.68 3.346 1.375 6.688l.773 3.761c.726 3.47.726 3.47 2.016 6.258.945 2.591.78 3.746-.164 6.293-9.724-20.09-9.655-45.899-3.086-66.926 5.063-13.562 5.063-13.562 10.086-16.074"/><path fill="#1a5bb1" d="m709 624 1 2h2v-2h4q.037 6.595.055 13.19.008 2.244.02 4.49c.013 2.147.018 4.294.023 6.441l.016 3.92C716 655 716 655 715 656a236 236 0 0 0-1 7l-3 1 .125 3.375c.018 5.024-1.005 9.747-2.125 14.625h-2l.375-3.125.27-2.254c.247-1.826.54-3.647.867-5.46 2.642-15.459 2.16-31.603.488-47.161"/><path fill="#59a3da" d="M516 127c-3.556 2.196-6.52 2.279-10.652 2.344l-4.015.085-2.115.034c-3.618.062-7.234.164-10.85.267l-2.174.062c-6.182.187-12.343.505-18.507 1.02-.85.059-1.702.117-2.58.176-4.51.351-4.51.351-7.923 3.067L456 136c-3.625.313-3.625.313-7 0l-1-1a95 95 0 0 0-5.293-.133l-3.33-.006-3.565.014-3.601.006c-7.135.035-14.17.266-21.277.896-4.645.353-9.28.308-13.934.223v-1q10.848-1.017 21.698-2.026 3.673-.343 7.345-.687c46.296-4.338 46.296-4.338 62.52-4.912l2.949-.115A494 494 0 0 1 516 127"/><path fill="#3362a1" d="M361 695c4.288.476 6.266 1.659 9 5v2a56.5 56.5 0 0 1-7-4v42c9.54 3.67 17.227 6.249 27 8l3.082.625c15.232 2.705 31.605 2.243 46.918.375v2c-16.065 2.851-31.038 2.194-47.125.188l-2.069-.251c-7.057-.869-13.451-1.661-19.806-4.937l-3.125-1c-3.007-1.046-5.35-2.052-7.875-4-.812-2.687-.812-2.687-1-5h2l-.108-3.225q-.194-5.94-.374-11.881-.08-2.568-.166-5.136c-.083-2.465-.157-4.93-.23-7.395l-.083-2.308c-.107-3.838.004-7.327.961-11.055"/><path fill="#3162a6" d="M494 698h1q.08 3.656.125 7.313c.017.69.034 1.38.05 2.091.037 3.767-.031 5.38-2.175 8.596h-2l-.078 1.828c-.47 6.63-.47 6.63-2.797 9.422L486 729l-1.5 2.75L483 734h-4l-.687 2.438L477 739c-2.625.813-2.625.813-5 1v2l-8 1-2 7q-4.437.08-8.875.125l-2.55.05-2.442.02-2.254.032C444 750 444 750 442 748l2.938-.594c7.67-1.667 14.71-3.833 21.75-7.343l1.994-.981c4.153-2.16 7.042-4.688 10.318-8.082h2l.688-1.562C483 727 483 727 485.375 724c5.395-7.432 7.128-17.099 8.625-26"/><path fill="#2b4b80" d="M826 1056v2q-9.492 1.466-18.984 2.922-6.143.94-12.282 1.906c-19.137 2.99-38.371 5.39-57.734 6.172v-2l2.114-.228c15.99-1.73 31.948-3.615 47.886-5.772v-1l1.988-.168q4.444-.379 8.887-.77l3.129-.263 2.988-.264 2.761-.238c2.279-.177 2.279-.177 4.247-1.297 1.599-.23 3.205-.41 4.813-.562l2.582-.254c2.545-.18 5.054-.216 7.605-.184"/><path fill="#3762a2" d="m370 702 2.563 1c3.647 1.061 6.66 1.151 10.437 1l1 4 1.863.148 2.45.227 2.425.21C393 709 393 709 396 711v2l2.813-.625C402 712 402 712 405 714c3.005.428 6.03.332 9.063.313l2.587-.009c6.004-.1 11.93-.45 17.35-3.304l1-2c2.322-.407 4.657-.744 7-1l1-4h3c-2.005 5.103-5.64 7.333-10.437 9.688-18.302 6.742-39.822 2.066-57.02-5.454-3.11-1.509-5.816-3.113-8.543-5.234z"/><path fill="#dff0f8" d="m430.93 549.902 3.906.01 4.039.025q2.055.009 4.11.014 5.007.018 10.015.049v1l-2.671.136q-4.986.263-9.97.554-2.142.12-4.285.23c-14.72.546-14.72.546-28.074 6.08q-3.495.526-7 1a126 126 0 0 0-6 2l-3 1-1 3-7-1c7.912-9.038 22.776-10.966 34-13l2.821-.542c3.416-.492 6.658-.57 10.109-.556"/><path fill="#eefdff" d="m675.34 1072.866 3.288-.083 2.975-.092L684 1073l2 3H561v-1l2.963-.031q14.025-.15 28.052-.308 7.205-.083 14.411-.158c28.39-.285 28.39-.285 56.765-1.176 4.05-.171 8.1-.298 12.148-.461"/><path fill="#325d9c" d="m430.578 548.832 2.806-.01q2.936-.007 5.87-.007c2.972-.002 5.943-.02 8.914-.04q2.862-.005 5.723-.005l2.662-.022c8.244.03 15.598 1.88 23.447 4.314l3.375 1.036C486 555 486 555 487 556a246 246 0 0 1 .098 8.848l-.005 2.686c-.005 2.843-.018 5.686-.03 8.529q-.009 2.884-.014 5.767-.017 7.085-.049 14.17h-1v-39l-10-2a404 404 0 0 1-8.652-2.316c-11.036-2.254-22.33-1.803-33.536-1.746q-2.598.008-5.197.013-6.308.017-12.615.049v-1c4.844-1.247 9.613-1.162 14.578-1.168"/><path fill="#39609d" d="m440.688 584.75 3.607.055q4.353.07 8.705.195v1l-2.124.06c-3.188.096-6.376.205-9.563.315-1.103.03-2.206.062-3.342.094l-3.233.117-2.967.095c-2.91.335-5.11 1.126-7.771 2.319l-4.062 1.375c-3.438 1.284-5.635 2.678-7.938 5.625l-1 3h-2c.087 1.626.195 3.25.313 4.875l.175 2.742c.3 2.745.3 2.745 3.512 4.383v2h2l.688 1.813c1.65 2.75 3.51 3.712 6.312 5.187l-1 3c-4.618-3.262-8.767-6.274-12-11l-1.25-1.812c-1.399-4.081-1.533-8.093-.027-12.122 3.738-7.038 8.862-9.65 16.07-12.222 5.609-1.476 11.135-1.262 16.894-1.094"/><path fill="#d3e9f9" d="M664 772h2v2c3.679.84 7.121 1.148 10.892 1.205l3.518.06 3.766.051 3.88.063q5.086.082 10.174.153 5.199.077 10.397.161 10.186.161 20.373.307l1 2q-12.217.176-24.435.26c-3.783.025-7.565.06-11.347.117-3.65.055-7.3.084-10.951.097q-2.088.015-4.177.055c-1.95.036-3.902.038-5.853.039l-3.364.033C667 778 667 778 664.61 775.465L663 773z"/><path fill="#d6e9f7" d="M464 585v2l2 1c-7.5-.89-7.5-.89-10.28-1.503-5.052-.923-10.16-.809-15.283-.872l-3.384-.113c-8.376-.088-14.595 1.747-22.053 5.488l-2.264 1.006c-2.528 1.447-2.86 3.297-3.736 5.994l-1 2h-2v-3h2l.375-1.812C409 593 409 593 411 590h2v-4l2.668-.434c1.987-.337 3.97-.697 5.945-1.101 14.196-2.774 28.194-1.604 42.387.535"/><path fill="#2860ae" d="m543 569 4 2-2.562 3-1.66 1.95a173 173 0 0 1-3.524 3.945c-4.042 4.42-7.02 8.884-9.797 14.199L528 596h-4l-1-3h4l1-6h2c1.285-2.828 1.285-2.828.313-4.937L530 580c1.75-2.25 1.75-2.25 4-4h3v-2a159 159 0 0 1 6-5"/><path fill="#3461a5" d="M632 589v1q-3.281.04-6.562.063l-2.042.016c-4.763.007-9.403-.346-14.146-.829-9.385-.666-15.85 1.65-23.187 7.438-.69.601-1.38 1.203-2.09 1.824-2.035 1.535-3.483 2.07-5.973 2.488 13.531-14.84 35.338-19.703 54-12"/><path fill="#2c5ca0" d="m367 576 3 1-1.242 2.563-1.633 3.437-1.617 3.375c-2.882 6.929-3.823 13.085-3.695 20.563l.019 2.382c.07 5.283.393 10.448 1.168 15.68l-3-1c-.814-5.723-1.183-11.285-1.187-17.062l-.038-2.315c-.012-4.897.746-8.912 2.225-13.623v-3.312c0-2.688 0-2.688 2-4.688.643-2.069.643-2.069 1-4h3z"/><path fill="#2a4b7f" d="M368 1056c13.396-.531 26.896 1.317 40 4l2.887.57q3.558.705 7.113 1.43v2c-8.524-.754-16.967-1.934-25.433-3.157a15736.228 15736.228 0 0 1-11.774-1.687l-2.147-.306c-3.573-.518-7.114-1.1-10.646-1.85z"/><path fill="#58a3d6" d="M751 131c20.413.808 40.755 2.201 61 5l-1 2c-27.961-1.846-27.961-1.846-41.273-3.566-5.048-.588-10.088-.86-15.164-1.09L752 133z"/><path fill="#def7fd" d="m498.905 124.88 2.523.006h2.851l3.1.016 3.157.005c3.342.005 6.684.018 10.027.03q3.39.009 6.779.014 8.329.017 16.658.049v1q-13.143.59-26.287 1.173l-12.208.545-11.787.525-4.49.201q-3.152.142-6.305.28l-3.62.162c-3.104.107-6.197.135-9.303.114 3.148-1.833 5.543-2.277 9.168-2.379l2.955-.103 3.065-.08q3.021-.09 6.042-.192l2.7-.072c2.39-.2 2.63-1.146 4.975-1.294"/><path fill="#eef6f8" d="M690 583c4.353 3.889 6.752 7.82 9.25 13.063l1.063 2.142c1.588 3.254 2.893 6.248 3.687 9.795h-5l-1-4h-2l.75-3.187c.622-3.845.622-3.845-1.562-6.75-1.93-2.292-1.93-2.292-4.188-2.063-2.092-4.43-2.092-4.43-1.625-7.312z"/><path fill="#d3f1fb" d="m447.883 128.121 3.535.147 3.707.17 3.73.158q4.573.195 9.145.404v1l-22.351 1.643c-11.214.825-22.428 1.63-33.649 2.357l3-1v-2l2.263-.168q5.057-.379 10.112-.77l3.563-.263 3.398-.264 3.142-.238c10.097-1.19 10.097-1.19 10.405-1.176"/><path fill="#3260a5" d="M642 752c1.813 2.063 1.813 2.063 3 4h-6v-2h-2l-1 2-44-1v-2c.972.01 1.945.02 2.947.032 3.658.036 7.316.059 10.975.078q2.361.015 4.722.04c8.217.09 16.041.149 24.083-1.815 2.707-.399 4.657-.11 7.273.665"/><path fill="#5da2d2" d="M864 144c7.807.622 15.432 1.867 23.125 3.313l3.581.666c8.861 1.68 17.596 3.637 26.294 6.021v1a889 889 0 0 1-7.25-.375c-.682-.03-1.364-.062-2.066-.094-3.758-.219-6.4-.75-9.684-2.531-2.452-.379-2.452-.379-5-.5-4.577-.28-4.577-.28-6.854-1.468-2.356-1.133-4.328-1.52-6.912-1.884l-2.695-.39-2.789-.383-2.836-.406q-3.455-.494-6.914-.969z"/><path fill="#2e5fa4" d="M709 624c2.533 4.896 3.171 8.735 3.352 14.258l.07 2.132q.071 2.227.136 4.453c.067 2.28.145 4.56.223 6.84q.068 2.163.133 4.325l.124 3.989C713 663 713 663 712 664a72 72 0 0 0-.754 4.035l-.4 2.451-.409 2.577-.42 2.587q-.512 3.174-1.017 6.35h-2l.375-3.125.27-2.254c.247-1.826.54-3.647.867-5.46 2.642-15.459 2.16-31.603.488-47.161"/><path fill="#e5eff6" d="m988 999 3 3-2 3-3-1-.312 1.875C985 1008 985 1008 982 1010v-2h-2v3l-1.812.875c-2.381 1.172-2.381 1.172-5.188 3.125l-1.937.375c-2.793.846-4.137 2.492-6.063 4.625-2-1-2-1-3-3l2.168-1.18c8.34-4.682 17.019-10.007 23.832-16.82"/><path fill="#2c4b81" d="m341 1048 3.375 1.5c4.959 2.052 9.905 2.414 15.2 2.973 2.981.459 4.884.977 7.425 2.527-4.212 1.15-7.272.77-11.516-.145l-3.793-.802-3.941-.866-3.895-.83A2140 2140 0 0 1 324 1048c5.602-3.116 10.952-1.353 17 0"/><path fill="#3b68ab" d="M530 713c3.227 3.123 6.223 6.376 9.188 9.75 5.36 5.997 11.1 11.775 17.812 16.25v2c-4.875-1.75-4.875-1.75-6-4-2.017-1.134-2.017-1.134-4-2v-2l-3-1v-2l-2.375-.375C539 729 539 729 537 727a154 154 0 0 1-2-7l-1.875-.25C531 719 531 719 529.688 717.063L529 715z"/><path fill="#64a6d7" d="m394 136-2 1v2l-3.016.113c-9.208.412-18.196 1.374-27.294 2.87-3.94.643-7.679 1.205-11.69 1.017l-1-2q7.683-1.078 15.369-2.136 2.61-.36 5.22-.728 3.766-.527 7.536-1.042l2.327-.332c4.896-.662 9.608-.86 14.548-.762"/><path fill="#d8f4fc" d="m832 134 9 2v3l14 1-1 2c-14.02-1.505-28.011-3.222-42-5v-1c6.766-.114 13.288.12 20 1z"/><path fill="#285ba0" d="M515 624h2l-.433 2.85c-1.519 10.599-1.81 20.957-1.692 31.65q.016 2.42.027 4.84.034 5.83.098 11.66h-3q.141-8.484.317-16.968.057-2.88.105-5.76c.046-2.776.104-5.551.164-8.327l.035-2.56c.145-5.97 1.04-11.569 2.379-17.385"/><path fill="#deeef7" d="M652 694c1.274 2.547.802 3.428.063 6.125l-.59 2.195L651 704h-3l-.812 2.375C646 709 646 709 643 711c-3.562.75-3.562.75-7 1l-2-2 1.906-.96c7.092-3.867 11.452-8.479 16.094-15.04"/><path fill="#3a5e9f" d="m634 706 4 2c-8.9 7.379-20.959 7.916-32.02 7.207-4.494-.47-8.746-1.67-12.98-3.207v-1c9.347.853 9.347.853 12.5 1.563 7.594 1.328 17.77 1.443 24.46-2.81 1.841-1.48 1.841-1.48 4.04-3.753"/><path fill="#3565a6" d="M660 627h1c1.705 8.499 2.258 16.594 2.125 25.25l-.027 3.45A1243 1243 0 0 1 663 664h-1v-8h-2z"/><path fill="#355fa2" d="M661 664h1c-.378 14.586-5.855 26.897-15 38l-2 1v-3h2l.875-2.937C649 694 649 694 651 693a78 78 0 0 0 2-5h2v-8h2v-4h2l.438-3.75c.349-2.815.766-5.52 1.562-8.25"/><path fill="#3862a3" d="M364 627c2 3 2 3 3.156 5.129C372.63 642.042 380.113 649.507 390 655c-1.812.625-1.812.625-4 1l-3-2v-2l-2.312-.812c-2.611-1.154-3.762-2.174-5.688-4.188l-3-1c-1.168-1.777-1.168-1.777-2.187-3.937l-1.043-2.153C368 638 368 638 368 636l-4-1z"/><path fill="#3460a1" d="M454 586c11.434.88 21.21 5.219 31 11l-1 3-1-2c-2.307-.599-4.617-.957-6.969-1.34L474 596l-1-3-2.312.125C468 593 468 593 465 591h-4v-2l-2.375-.375C456 588 456 588 454 586"/><path fill="#c1daef" d="M707 619h1c2.885 13.755 3.366 26.97 3 41h-1q-.653-5.865-1.282-11.731-.32-2.953-.652-5.906c-.834-7.824-1.265-15.495-1.066-23.363"/><path fill="#3461a8" d="M562 556h6c-2.803 3.204-6.365 5.266-9.937 7.5-3.783 2.38-7.538 4.743-11.063 7.5l-1-5c2.25-2.062 2.25-2.062 5-4 2.313.25 2.313.25 4 1v-3l2.938-.875c3.169-.767 3.169-.767 4.062-3.125"/><path fill="#214879" d="M238 1017c6.296.663 11.98 1.993 18 4v3l5 1v3c-5.206-1.58-9.984-3.779-14.875-6.125l-2.375-1.129q-2.876-1.37-5.75-2.746z"/><path fill="#f6fef1" d="M401 659h2v2q2.498.513 5 1l3.063.625c2.746.35 4.357.268 6.937-.625l.813 2.375c1.035 2.906 1.035 2.906 4.187 4.625v2c-8.402-2.506-16.12-6.21-24-10z"/><path fill="#5ca3dc" d="M214 181v3l-2.375.813c-2.906 1.035-2.906 1.035-4.625 4.187a76 76 0 0 0-1.125 5.188l-.508 2.73L205 199l-4 1v5h-1c-.534-8.893 1.708-13.787 7.5-20.484 2.005-2.026 3.555-3.516 6.5-3.516"/><path fill="#28569f" d="m666 777 61 1v1h-55v2l-6-2z"/><path fill="#3460a2" d="M398 660c2.196.741 2.196.741 4.91 1.95l3.002 1.321 3.15 1.417 3.069 1.357c2.96 1.31 5.915 2.632 8.869 3.955l5.246 2.332 2.205.98L430 674l-3 2-2.125-1.312c-4.544-2.667-8.615-4.915-13.875-5.688v-2l-2.125.188c-3.546-.232-5.759-1.53-8.875-3.188-2.235-.686-2.235-.686-4-1v-2z"/><path fill="#ecf9f8" d="m561 560 2 1-1 3c-1.996.922-1.996.922-4.437 1.75-3.403 1.319-3.403 1.319-5.602 4.063-.621 2.133-.621 2.133-.961 5.187l-1-2h-2l-1 3c-2.062 1.188-2.062 1.188-4 2v2l-4-1c13.766-14.34 13.766-14.34 22-19"/><path fill="#d8f6fd" d="M320 146v1q-7.042 1.474-14.087 2.936-2.392.497-4.783.998-3.455.722-6.911 1.437l-2.129.448c-4.682.965-9.34 1.639-14.09 2.181l2-1v-2l2.535-.297c6.611-.85 12.76-1.977 19.152-3.828 6.264-1.77 11.834-2.36 18.313-1.875"/><path fill="#eef6f3" d="M694 700h2l1 2h2c-1.433 3.96-3.331 7.287-5.625 10.813l-1.914 2.957L690 718l-2-1 2-6h2l-.687-1.562c-.478-3.726 1.074-6.083 2.687-9.438"/><path fill="#c7ddef" d="M516 628h1c.135 8.073-.05 16.122-.375 24.188-.03.932-.062 1.865-.094 2.826l-.117 2.654-.095 2.384C516 662 516 662 514 664c-.413-26.177-.413-26.177 2-36"/><path fill="#ebf8fd" d="m362 697 6 4-4 1v37l3 1v2l-5-2z"/><path fill="#5da5d9" d="m282 155-1 3-13 1v2l-7 1-1 3-4-1v-3c3.581-1.008 7.165-2.005 10.75-3l3.078-.867 2.969-.82 2.73-.762C278 155 278 155 282 155"/><path fill="#6aabd8" d="M979 176c7.231 3.152 14.817 8.202 19 15 .875 3.188.875 3.188 1 6l-2 2-.77-2.047-1.043-2.703-1.019-2.672c-1.155-2.549-2.305-4.494-4.168-6.578l-3-1v-2l-7-2z"/><path fill="#e8f5f8" d="M585 552c-1.608 3.217-4.786 3.647-8 5l-2 2c-2 .045-4 .038-6 0-2.006.297-4.008.62-6 1 3.644-3.181 7.052-5.083 11.563-6.812l3.378-1.333c2.977-.832 4.243-.977 7.059.145"/><path fill="#e4f2f9" d="m675.53 1072.863 3.267-.082 2.901-.092L684 1073l2 3-42-1v-1q6.625-.255 13.25-.5l3.742-.145c4.846-.178 9.692-.304 14.537-.492"/><path fill="#f0f6f7" d="M368 702c3.995 1.37 6.8 3.257 10 6l-3 4c-5.875-.875-5.875-.875-7-2-.141-2.67-.042-5.324 0-8"/><path fill="#3b66ae" d="M518 686c2.167 3.25 3.482 6.57 4.875 10.188C525 701.614 527.265 706.846 530 712l-2 1-1-4h-3l-2-10h-3z"/><path fill="#ddeff8" d="m562 620 2 1c1.463 5.485.584 9.998-.453 15.512-1.011 6.45-1.233 12.972-1.547 19.488h-1c-.03-4.125-.047-8.25-.062-12.375l-.026-3.504c-.019-6.775.236-13.397 1.088-20.121"/><path fill="#def5fc" d="M515 662h1l.375 3.063c.524 3.846.524 3.846 1.563 7.125.928 3.33 1.494 6.464 2 9.875.7 4.52 1.883 7.89 4.062 11.937l-1 3c-6.812-6.812-8.092-22.405-8.125-31.75z"/><path fill="#214489" d="m988 994 3 1c-1.503 3.668-3.637 5.69-6.625 8.25l-2.477 2.14L980 1007l-1-2h-2c1.451-3.826 3.406-5.157 7-7h1v-2z"/><path fill="#dff1f9" d="M430 674c6.509-.368 6.509-.368 8.75 1.313L440 677l1.563 1.563L445 682v3h2l1 3-2 1-1.215-1.54c-3.91-4.734-7.826-8.123-13.062-11.331L430 675z"/><path fill="#def2fa" d="M368 742c4.84-.303 7.88.241 12.414 2.14 4.24 1.41 8.634 2.056 13.039 2.77 3.467.586 5.574 1.108 8.547 3.09-11.96-.927-22.696-2.965-34-7z"/><path fill="#2f5ea4" d="M483 658h2c1.606 1.927 2.878 3.756 4 6h4l-.125 3.688c-.013 3.594.727 5.992 2.125 9.312.125 3.313.125 3.313 0 6-2-1-2-1-2.86-3.555l-.89-3.32c-1.926-6.603-4.716-12.247-8.25-18.125"/><path fill="#1e59ac" d="m463 746-1 4q-4.437.08-8.875.125l-2.55.05-2.442.02-2.254.032C444 750 444 750 442 748c7.13-1.901 13.637-2.224 21-2"/><path fill="#def0f8" d="m661 669 2 3-1 3 2 2q-.676 2.19-1.375 4.375l-.773 2.46C661 686 661 686 659 688l-3-1 .84-2.668 1.097-3.52 1.09-3.48A79 79 0 0 0 661 669"/><path fill="#ebf7f8" d="M457 640a677 677 0 0 1 5.75 2.75l3.234 1.547c2.883 1.628 4.82 3.251 7.016 5.703l-9 3v-7l-8-4z"/><path fill="#3c66a6" d="M494 698h1q.08 3.656.125 7.313l.05 2.091c.037 3.767-.031 5.38-2.175 8.596h-2l-.312 2.25c-.73 2.92-1.756 4.482-3.688 6.75l-2-1 1.813-2.937c4.09-7.197 5.752-14.978 7.187-23.063"/><path fill="#345d9d" d="M438 680c4.51 3.484 8.144 6.431 10 12 .508 4.772.713 7.93-2 12-1.6-4.002-.293-7.046 1-11l-3 1-.75-3.312c-1.333-3.934-2.04-4.44-5.25-6.688z"/><path fill="#3366a9" d="M449 634q2.377.428 4.75.875l2.672.492c2.447.601 4.384 1.413 6.578 2.633v3l2 1c-3 1-3 1-6.355-.434a280 280 0 0 1-3.832-2.004l-1.983-1.025A606 606 0 0 1 448 636z"/><path fill="#dcf9fe" d="M365.816 136.902q2.374.01 4.747.036l2.443.013q2.997.02 5.994.049v1a5202 5202 0 0 1-12.488 1.709l-4.242.582q-3.06.422-6.122.834l-3.713.508c-3.179.34-6.241.435-9.435.367l1-2c2.85-.45 5.633-.796 8.5-1.062 4.678-.458 8.888-1.922 13.316-2.036"/><path fill="#e4f6fc" d="M463 742c-5.807 5.807-17.094 6.643-25 7l1-2 3.5-.312c3.662-.335 5.95-1.375 9.063-3.313 4.335-2.627 6.598-2.713 11.437-1.375"/><path fill="#385fa4" d="M596.25 546.938 600 547v1l-3.805.734c-11.97 2.325-11.97 2.325-23.383 6.532C571 556 571 556 568 556c1.47-3.765 1.47-3.765 3.816-4.805l2.176-.425 2.387-.495 2.496-.462 4.867-.981 2.183-.415a83 83 0 0 0 4.207-.963c2.1-.51 3.96-.552 6.118-.516"/><path fill="#3462a0" d="M525 596h2c-1.55 4.755-3.245 9.443-5 14.125-.26.703-.52 1.405-.79 2.129-1.249 3.34-2.517 6.604-4.21 9.746.554-6.761 1.365-13.693 4-20l3-1z"/><path fill="#c6ddfc" d="M485 557h1v41l-6-3v-1h5z"/><path fill="#d7ebf8" d="m627.723 750.902 3.34.035 3.347.028L637 751v1c-8.92 2.083-17.566 2.24-26.687 2.125q-2.093-.016-4.186-.027A1881 1881 0 0 1 596 754v-1l2.554-.076q4.677-.143 9.354-.296 2.026-.066 4.054-.125 2.907-.088 5.815-.187l3.54-.11c3.108-.238 3.275-1.191 6.406-1.304"/><path fill="#d8ebf9" d="m381 565 2 1c-1.933 2.025-3.632 3.421-6 5-1.226 2.014-1.226 2.014-2.312 4.313-2.315 4.374-4.695 6.808-8.688 9.687 1.314-4.782 3.195-7.9 6.375-11.687l2.336-2.825c1.986-2.159 3.876-3.84 6.289-5.488"/><path fill="#254879" d="m285 1035 11 1v3l3.313-.25 3.687.25c1.73 2.016 1.73 2.016 3 4-7.403-1.794-14.728-3.731-22-6z"/><path fill="#e9f3f5" d="m634 712-4 4 2 2-12 1v-2h4v-2l-3-1q2.684-.793 5.375-1.562l3.023-.88C632 711 632 711 634 712"/><path fill="#204378" d="M918 1035c-2.555 1.704-4.093 2.46-6.941 3.29l-2.268.663-2.354.672-2.365.695c-5.794 1.68-5.794 1.68-8.072 1.68v-3h7v-2c5.225-1.467 9.581-2.226 15-2"/><path fill="#e2eff7" d="m998 984 2 2c-.312 1.813-.312 1.813-1 4l-.312 2.625C998 995 998 995 996.25 996.188L994 997q-2.502.996-5 2l1.46-2.266c.633-.984 1.264-1.97 1.915-2.984l1.898-2.953c1.378-2.232 2.61-4.428 3.727-6.797"/><path fill="#3562a5" d="M699 596c1.894.231 1.894.231 4 1 1.005 1.87 1.005 1.87 1.703 4.297l.781 2.656.766 2.797.813 2.75c1.235 4.31 2.087 7.988 1.937 12.5-1.691-2.537-2.526-4.232-3.437-7.055l-.774-2.363-.789-2.457c-2.3-7.135-2.3-7.135-5-14.125"/><path fill="#e3f4f9" d="M641 592c6.541 4.529 6.541 4.529 9.25 7.313 1.705 2.034 1.705 2.034 4.75 1.687 0 3 0 3-1.5 4.688L652 607l-1.355-1.793c-3.333-4.356-6.646-8.45-10.645-12.207z"/><path fill="#e7f3f6" d="M211 999q1.909 1.402 3.813 2.813l2.144 1.582c1.855 1.458 3.534 2.791 5.043 4.605v3h-2v-3l-2.312.125C215 1008 215 1008 212 1006l-2-1c0-4 0-4 1-6"/><path fill="#3162a9" d="M639 594c5.653 1.37 8.511 5.677 12 10l-3 1-1 2v-6l-5-1v4h-2l1-7-2-1z"/><path fill="#305d9d" d="m470 642 .75 1.875c1.456 2.476 2.628 3.076 5.25 4.125v2l3 1c.688 2.063.688 2.063 1 4l-1.469-1.137A158 158 0 0 0 464 644c3.75-2 3.75-2 6-2"/><path fill="#31517f" d="M263 1027c3.8.86 7.444 2.107 11.125 3.375l3.758 1.273C281 1033 281 1033 283 1036c-7.118-2.038-14.067-4.403-21-7z"/><path fill="#25477f" d="m962 1018-19 9v-3l2.438-.875c2.695-.858 2.695-.858 3.562-3.125 1.926-.887 1.926-.887 4.313-1.687l2.363-.825C958 1017 958 1017 962 1018"/><path fill="#e9f4f8" d="M203 988c2.916 3.54 5.501 7.163 8 11l-8 1z"/><path fill="#2e4c85" d="m449.25 1064.875 3.766-.008C456 1065 456 1065 457 1066q3.492.552 7 1c-3.345 2.044-5.557 2.144-9.422 1.758l-3.105-.293-3.223-.34-3.27-.316q-3.99-.39-7.98-.809v-1c4.128-.993 8.01-1.134 12.25-1.125"/><path fill="#274682" d="M826 1056v2c-7.411 1.426-14.449 2.3-22 2v-1c7.234-2.359 14.404-3.081 22-3"/><path fill="#e4f5fc" d="M492 703h1c-.463 7.288-1.63 14.63-7 20 .114-1.46.242-2.917.375-4.375.07-.812.14-1.624.21-2.46C487 714 487 714 489 712a70 70 0 0 0 1.625-4.625l.79-2.477z"/><path fill="#1a5db0" d="M564 644h2v14h-3q-.04-2.937-.062-5.875l-.036-3.305C563 646 563 646 564 644"/><path fill="#33629f" d="m407 554-2.852.988-3.773 1.324-3.727 1.301c-3.647 1.317-3.647 1.317-6.984 3.055C387 562 387 562 385 562v-2l3-2 2-2a94 94 0 0 1 6.375-1.687l3.46-.825c2.895-.446 4.463-.48 7.165.512"/><path fill="#fafaf1" d="m662 766 1.426 1.094 1.886 1.406 1.864 1.406c1.898 1.351 1.898 1.351 4.824 1.094l-1 4-5-1v-2l-3 1c-1.062-2.375-1.062-2.375-2-5z"/><path fill="#255ba4" d="m621 588 3-.562c3.38-.493 4.988.056 8 1.562v1c-8.412.1-16.644.101-25-1v-1c4.977-.705 9.056-1.069 14 0"/><path fill="#3360a0" d="m381 562 4 1-1.793 1.32c-4.715 3.554-8.644 6.968-12.207 11.68l-1-4h2v-2c5.476-5 5.476-5 8-5z"/><path fill="#dcf6fd" d="m985 178 4 1v2l1.766.762c2.517 1.395 4.068 2.91 5.984 5.05l1.86 2.02c1.663 2.593 1.664 4.144 1.39 7.168-2-2-2-2-3.375-4.312-3.21-5.31-6.457-8.282-11.625-11.688z"/><path fill="#5da5d3" d="M940 161c5.257.663 9.929 2.256 14.875 4.063l2.375.853q2.876 1.036 5.75 2.084c-3.498 1-5.334.843-8.812-.312l-2.645-.852L949 166c-4.422-1.452-4.422-1.452-9-2z"/><path fill="#eaf5fa" d="m302 1042 18 4c-2 2-2 2-3.988 2.012l-2.325-.324-2.421-.329c-2.439-.386-4.857-.815-7.266-1.359v-2h-2z"/><path fill="#ddeff8" d="m582 705 14 7-1 2c-1.462-.229-2.92-.484-4.375-.75l-2.46-.422C586 712 586 712 584.71 709.922L584 708h-2z"/><path fill="#e5f3fa" d="m373 639 1 2 2.5.938L379 643l1 3c2.015.733 2.015.733 4 1v4c-3.452-1.477-5.65-3.438-8.25-6.125l-2.14-2.195L372 641z"/><path fill="#62a5d9" d="M917 155c7.907.645 15.391 2.87 23 5v1c-7.874.262-7.874.262-12-2l-3.5-.437c-3.498-.563-4.943-1.21-7.5-3.563"/><path fill="#2a487d" d="M731 1069v1c-9.024.69-17.944 1.152-27 1v-1c9.04-2.688 17.75-1.794 27-1"/><path fill="#3162a6" d="M430 627h8l1 3 2.313.375C444 631 444 631 447 633l-1 2-16-7z"/><path fill="#2d5e9d" d="m412 611 1 2h2l.688 1.813c1.65 2.75 3.51 3.712 6.312 5.187l-1 3a337 337 0 0 1-3.875-2.75l-2.18-1.547c-2.055-1.8-3.037-3.137-3.945-5.703z"/><path fill="#e1eff9" d="M435 630c5.233 1.64 10.152 3.39 15 6v2l-3 2-3-1v-3l-9-4z"/><path fill="#e3f2f7" d="m568 611 3 1-6 12c-.276-1.6-.52-3.205-.75-4.812l-.422-2.708c.172-2.48.172-2.48 1.969-4.367z"/><path fill="#e5f8fc" d="M789 130c1.813 2 1.813 2 3 4-5.22.18-9.073-.03-14-2v-1c7.742-1.44 7.742-1.44 11-1"/><path fill="#deeefa" d="M447 701h1c.22 3.833-.015 6.662-2 10-2.875 1.188-2.875 1.188-6 2a87 87 0 0 0-4 2l-2-2 1.61-.7c4.575-2.112 7.594-3.938 10.39-8.3z"/><path fill="#36629e" d="M652 607c3.243 3.73 5.512 8.302 7 13l-1 3c-1.945-2.918-2.453-4.625-3-8h-2c-1.354-2.709-1.065-5.01-1-8"/><path fill="#e2eff5" d="m538 580 5 3-1.625.688c-3.16 1.746-5.643 3.952-8.375 6.312l-2-1z"/><path fill="#3063a8" d="M666 560c3.024.588 6.018 1.227 9 2l1-2v6l4 1-3 2q-2.19-1.685-4.375-3.375l-2.46-1.898C668 562 668 562 666 560"/><path fill="#1b4276" d="m994 984 4 1q-.893 1.943-1.812 3.875l-1.02 2.18C994 993 994 993 991 995c0-4.458.504-7.256 3-11"/><path fill="#2f5eaa" d="m706 683 2 1-.5 2.813c-.577 3.143-.577 3.143-.5 6.187-1 2.188-1 2.188-2 4h-3q.717-2.657 1.438-5.312l.808-2.989A121 121 0 0 1 706 683"/><path fill="#f3fbef" d="m571 600 2 1-2 10-3-1c-1.231-2.652-1.04-3.87-.187-6.687C569 601 569 601 571 600"/><path fill="#ddeff9" d="M397 557v2l-2.437 1.438C391.708 561.8 391.708 561.8 391 565l-7-1c2.155-2.357 4.197-3.79 7.063-5.187l2.097-1.043C395 557 395 557 397 557"/><path fill="#d2e3f1" d="m921 1036-1 2c-3.02.887-3.02.887-6.812 1.688l-3.77.824c-3.003.429-4.634.533-7.418-.512q3.901-1.296 7.813-2.562l2.236-.749c5.611-1.802 5.611-1.802 8.951-.689"/><path fill="#3367ad" d="M707 755h7c1 3 1 3 0 6l3 1-2 2q-2.004-1.966-4-3.937l-2.25-2.215C707 756 707 756 707 755"/><path fill="#dbf1fa" d="M401 659h2v2l2.063.313c3.566.834 6.6 2.182 9.937 3.687l-1 2c-5.233-1.64-10.152-3.39-15-6z"/><path fill="#32609a" d="M364 627c2.314 3.471 4.429 7.04 6.563 10.625A146 146 0 0 0 374 643h-3c-3-4.222-3-4.222-3-7l-4-1z"/><path fill="#416aa0" d="M409 597h2v2h-2a424 424 0 0 0 .375 4.75c.07.882.14 1.763.21 2.672.414 2.569 1.127 4.336 2.415 6.578l-2 1c-3.01-5.016-3.467-8.302-3-14z"/><path fill="#335385" d="m321.5 1044.063 2.5.937-1 2a676 676 0 0 1-5.25-.875l-2.953-.492c-2.57-.582-4.518-1.341-6.797-2.633 4.058-2.03 9.34-.2 13.5 1.063"/><path fill="#35609d" d="M687 721v3l-1.562 1.438L684 727c.27 2.974.854 3.854 3 6l-2 2-5-5c1.555-3.817 4.036-6.192 7-9"/><path fill="#3aa6fb" d="m296 155-1 3h-12c1-2 1-2 2.563-2.625 3.501-.539 6.895-.434 10.437-.375"/><path fill="#dfeff8" d="M824 1059c-2.543 2.543-3.905 2.431-7.437 2.75l-2.934.297C811 1062 811 1062 808 1060q2.873-.544 5.75-1.062l3.234-.598c2.764-.312 4.425-.24 7.016.66"/><path fill="#d5e7f3" d="M856 1053c-4.869 2.608-8.724 3.123-14.25 3.063l-3.266-.028L836 1056v-1q4.154-.794 8.313-1.562l2.38-.46 2.295-.42 2.11-.396C853 1052 853 1052 856 1053"/><path fill="#e5f2fa" d="M251 1024c4.472 1.418 8.711 3.113 13 5v1l-11-1v-3h-2z"/><path fill="#3460a2" d="m561 742 15 6-1 2h-4v-2c-.638-.182-1.276-.364-1.934-.55l-2.504-.763-2.496-.738L562 745z"/><path fill="#ebf6f5" d="m646 705 2 1c-2.809 3.32-4.414 4.85-8.687 5.938L636 712l-2-2 3.313-.312c3.649-.68 4.499-.924 6.687-3.688z"/><path fill="#375fa1" d="M578 700h3l5 5c2.277 1.482 4.595 2.727 7 4v2c-3.775-1.339-6.614-3.016-9.75-5.5l-2.36-1.844C579 702 579 702 578 700"/><path fill="#245ca4" d="m551 562 2 4-6 5-1-5z"/><path fill="#d8f3fb" d="m954.688 162.25 2.386.766C959 164 959 164 960 167a799 799 0 0 1-5.312-1.375l-2.989-.773C949 164 949 164 946 162c3.352-1.135 5.357-.873 8.688.25"/><path fill="#edf3f2" d="m836 1057-3 2-2 3h-4l-1-5c3.663-.75 6.424-1.238 10 0"/><path fill="#e7f1f7" d="M901 1041v3l-5 1v2c-1.937-.312-1.937-.312-4-1l-1-3c6.625-2 6.625-2 10-2"/><path fill="#315d9f" d="m385 709 3.813-.125 2.144-.07C393 709 393 709 396 711v2c-4.649.324-7.224-.224-11-3z"/><path fill="#2d5aa7" d="m634 706 4 2c-2.847 2.32-5.476 3.916-9 5l-3-1 2.875-1.875c3.07-1.945 3.07-1.945 5.125-4.125"/><path fill="#dfeff8" d="M366 630h2l1 2h3l2 5-2 1-1 2q-1.257-1.932-2.5-3.875l-1.406-2.18C366 632 366 632 366 630"/><path fill="#dcf0fb" d="m420 622 14 7-1 2c-5.66-1.245-8.834-2.935-13-7z"/><path fill="#dff2fb" d="m409 612 9 9-3 1c-2.435-1.623-4.172-2.8-6-5-.375-2.812-.375-2.812 0-5"/><path fill="#2a59ab" d="m576 605 1 3h-3l.625 1.75c.47 2.822-.017 3.919-1.625 6.25l-3 1c1.33-8.35 1.33-8.35 4.125-11.062z"/><path fill="#ddf1f9" d="M475 734c-1.22 3.66-2.126 3.923-5.437 5.688l-2.434 1.324C465 742 465 742 463 742c1.22-3.66 2.126-3.923 5.438-5.687l2.433-1.325C473 734 473 734 475 734"/><path fill="#3360a2" d="M523 701c2.406 2.185 3.795 4.26 5.188 7.188l1.042 2.167L530 712l-2 1-1-4h-3c-1.354-2.709-1.065-5.01-1-8"/><path fill="#d3ecf9" d="M521 609h1c-.452 5.915-1.158 11.352-3 17h-2c.55-6.048 1.904-11.306 4-17"/><path fill="#e0f2fd" d="m576 599 2 1c-1.652 3.58-3.731 6.78-6 10h-1c-.369-5.53-.369-5.53 1.375-7.75L574 601z"/><path fill="#e2effb" d="M605 586v1l-5.25 1.438-2.953.808c-2.26.61-4.523 1.196-6.797 1.754v-3c4.86-2.592 9.653-2.187 15-2"/><path fill="#2a497e" d="M210 997c3.448 1.211 5.494 2.385 8 5l2.125 1.063C222 1004 222 1004 223 1006c-4.14-.522-6.255-1.69-9.312-4.5l-2.114-1.906C210 998 210 998 210 997"/><path fill="#135dbe" d="m729 769 7 2v3c-5.538.37-5.538.37-7.875-1.5L727 771z"/><path fill="#dcf1fa" d="M576 748h11v3l3 1c-4.97-.514-9.29-1.234-14-3z"/><path fill="#e1f2f9" d="M684.563 719.938 687 720c-1.491 3.795-3.757 5.61-7 8 1.015-7.976 1.015-7.976 4.563-8.062"/><path fill="#ecf9fe" d="M515 662h1l.375 3.063c.536 3.945.536 3.945 1.75 7.687C519 676 519 676 518 679c-3.551-3.551-3.054-8.63-3.062-13.437z"/><path fill="#d6eff7" d="m585 552-1 2q-3.499.509-7 1l-2 2-4-2a336 336 0 0 1 4.75-2.062l2.672-1.16c2.73-.824 3.947-.755 6.578.222"/><path fill="#599fd2" d="M993 187c3.258 2.172 4.793 3.31 5.938 7.125L999 197l-2 2a1151 1151 0 0 1-2-4.875l-1.125-2.742C993 189 993 189 993 187"/><path fill="#dcf6fc" d="m204 184 2 1c-.821 4.436-2.823 7.823-6 11-.22-3.856.308-6.523 2-10z"/><path fill="#4569b5" d="M515 670h1l2 16c-3.16-4.213-3.642-5.902-4-11 .438-2.937.438-2.937 1-5"/><path fill="#d1e8f7" d="M480 656c4.01 3.676 6.453 7.19 9 12h-2c-4-4.353-4-4.353-4-8l-3 1z"/><path fill="#2a5fa6" d="m528 587 4 2-4 7h-4l-1-3h4z"/><path fill="#2c62a6" d="M693 585h2v2l1.875-.562C699 586 699 586 701 587l-1 2-2-1 1 7c-2.743-3.2-4.63-6.005-6-10"/><path fill="#dcf1fb" d="m450 584 14 1v2l2 1c-5.508-.59-10.649-1.567-16-3z"/><path fill="#5da4db" d="M236 169v2l-5 1 1 4-8-1c3.402-2.748 7.485-6 12-6"/><path fill="#3ca7f7" d="M905 155c7.429-.286 7.429-.286 11 2-3.674 1.176-7.17 1.074-11 1z"/><path fill="#385686" d="M337 1049c1.605.087 3.21.196 4.813.313l2.707.175c2.786.575 3.721 1.333 5.48 3.512-4.38-.52-8.688-1.057-13-2z"/><path fill="#4063a4" d="M590 591v3c-1.61 1.57-1.61 1.57-3.75 3.125l-2.11 1.57c-2.086 1.272-3.753 1.864-6.14 2.305 3.7-3.925 7.55-6.946 12-10"/><path fill="#d6ecf9" d="M628 586q2.159.68 4.313 1.375l2.425.773C637 589 637 589 640 591v2l-2-.812c-3.65-1.445-7.322-2.817-11-4.188z"/><path fill="#e1edf7" d="M665 560c3.51 1.638 6.455 3.031 9 6h-3l-1 2q-1.53-1.47-3-3v-1l-2-1z"/><path fill="#ddeef7" d="m561 560 2 1c-1 3-1 3-2.996 4.203l-2.442 1.047-2.433 1.078C553 568 553 568 551 567z"/><path fill="#48a3df" d="M936 161h4v3l3-1c2.688.438 2.688.438 5 1-2.917 1.984-4.124 1.988-7.75 1.625L937 165z"/><path fill="#e0f5fd" d="M248 161h8c-2.463 2.463-4.274 2.768-7.625 3.625l-3.04.79L243 166l1-3h4z"/><path fill="#e5f9fe" d="M294 151c-4.137 2.413-9.455 4.508-14.25 3.55L278 154h2v-2c4.724-.652 9.22-1.12 14-1"/><path fill="#2b5ca8" d="M724 771c1.484.423 2.962.864 4.438 1.313l2.496.738L733 774l1 3c-2.187.375-2.187.375-5 0-1.99-1.84-3.39-3.792-5-6"/><path fill="#365f9b" d="M515 624h2l-2 16h-1a1217 1217 0 0 1-.062-6.312l-.036-3.551C514 627 514 627 515 624"/><path fill="#f9f9f6" d="M349 138c-4.48 3.36-7.606 3.274-13 3 2-3 2-3 4.094-3.547l2.406-.203 2.406-.234C347 137 347 137 349 138"/><path fill="#ddeef7" d="M375 1058c11.522.964 11.522.964 17 2-3.348 2.082-5.252 2.1-9.062 1.25l-2.598-.547C378 1060 378 1060 375 1058"/><path fill="#4267af" d="M454 746v2c-4.327 2.23-7.284 1.925-12 1v-1a909 909 0 0 1 4.313-1l2.425-.562C451 746 451 746 454 746"/><path fill="#d7ebf7" d="M563 740h2v2l7 2v3l-10-4z"/><path fill="#dcf1fa" d="M529 707c4.202 2.802 4.937 6.216 6 11-3.394-3.126-5.606-5.565-7-10z"/><path fill="#2256a8" d="M367 698c3.375.25 3.375.25 7 1 1.438 2.063 1.438 2.063 2 4l-2 1c-2.125-.937-2.125-.937-4-2v-2l-3-1z"/><path fill="#2f60a3" d="M658 555h7l2 4-2 1c-2.475-1.114-4.679-2.582-7-4z"/><path fill="#214789" d="m880 1042 2 1v1l2 1c-4.462 1.806-7.31 2.117-12 1l4-2 2.125-1.187z"/><path fill="#e6f3fb" d="m274 1033 10 3-1 2-9-2z"/><path fill="#2d5d9a" d="m488 722 2 3-2.75 1.75c-2.77 1.918-4.97 3.794-7.25 6.25 1.361-4.455 3.308-6.254 7-9z"/><path fill="#305ba4" d="m573 690 1 2h2l2 8c-5.735-5.294-5.735-5.294-6-9z"/><path fill="#c4d5e6" d="m445 1067 15 1v1c-1.747.25-3.498.474-5.25.688-1.462.19-1.462.19-2.953.386C449 1070 449 1070 445 1067"/><path fill="#dfeef5" d="m870 1050-6 1v3l-6-1v-2c8.036-2.277 8.036-2.277 12-1"/><path fill="#254784" d="M940 1026v2l-6 2-3-3c2.957-1.478 5.742-1.06 9-1"/><path fill="#e2f2fa" d="M646 756h5l.375 2.438L652 761l2 1c-3 0-3 0-4.387-1.312z"/><path fill="#f8faee" d="m457 738 7 1-1 3-6-1z"/><path fill="#335f9d" d="M547 733c3.987 1.367 6.885 3.152 10 6v2c-4.875-1.75-4.875-1.75-6-4-2.017-1.134-2.017-1.134-4-2z"/><path fill="#416cae" d="M407 715c-3.272 1.073-5.43.893-8.75.063l-2.422-.59L394 714v-1c5.449-1.199 8.222-.914 13 2"/><path fill="#2961b5" d="M573 682h1v6h2l-2 4h-3l-1-4h2z"/><path fill="#e1f5fd" d="M706 679c1.188 3.43.802 5.378-.437 8.75l-.872 2.422L704 692c-1.155-3.942-.822-6.962 0-11z"/><path fill="#ddeff9" d="M527 596h1c-.352 5.461-.352 5.461-1 8-2.062 1.5-2.062 1.5-4 2 1.11-3.487 2.263-6.775 4-10"/><path fill="#d1e4f4" d="M674 566q1.974 1.43 3.938 2.875l2.214 1.617C682 572 682 572 683 574l-3 1-.75-1.875c-1.456-2.476-2.628-3.076-5.25-4.125z"/><path fill="#e8f7fc" d="m212 177 3 1c-1 3-1 3-4.062 4.688L208 184v-2h2v-4z"/><path fill="#cff2fc" d="M880 146c1.77-.081 3.541-.14 5.313-.187l2.988-.106c2.699.293 2.699.293 4.554 1.805L894 149c-9.41-.964-9.41-.964-14-2z"/><path fill="#47a1e2" d="m813 137 10 2v1l-11 1z"/><path fill="#395689" d="M294 1039c1.436-.108 2.874-.186 4.313-.25l2.425-.14C303 1039 303 1039 306 1043l-12-3z"/><path fill="#1c5ba8" d="M698 738h3c-.398 2.886-.79 3.822-3.062 5.75L696 745l-3-4h4z"/><path fill="#daedf8" d="M697 702h2c-1.335 3.594-2.96 6.755-5 10-1-3-1-3-.223-4.824z"/><path fill="#dfecf8" d="m585 592 2 2c-4.75 4-4.75 4-7 4v-5c2.375-.625 2.375-.625 5-1"/><path fill="#58a9e3" d="M386 136h8l-2 1v2h-7z"/><path fill="#d4e9f6" d="M553 736c2.763.523 5.326 1.109 8 2 .688 2.063.688 2.063 1 4-3.937-1.312-6.227-2.92-9-6"/><path fill="#e0f8fb" d="M536 720h4v3h3l1 5a707 707 0 0 1-3.437-2.875l-1.934-1.617C537 722 537 722 536 720"/><path fill="#dcf1f4" d="M698 692h2v3h2c-.75 4.75-.75 4.75-3 7-1.607-3.215-1.057-6.436-1-10"/><path fill="#e1f3fd" d="m457 640 10 5-2 2-2-2a221 221 0 0 0-7-3z"/><path fill="#e0eff9" d="M700 599c2.686 2.686 3.06 5.376 4 9l-4-1z"/><path fill="#2661b7" d="M691 577h3c.688 1.813.688 1.813 1 4-1.437 1.75-1.437 1.75-3 3l-2-2c.375-2.625.375-2.625 1-5"/><path fill="#e5f7fe" d="M643 551q2.19.425 4.375.875l2.46.492C652 553 652 553 654 555c-3 1-3 1-5.043.223l-2.144-1.16-2.168-1.153L643 552z"/><path fill="#4ba4e6" d="M237 168h2l.375 1.938L240 172l2 1-3 1-3-2z"/><path fill="#d5eff9" d="M804 133v2h6v1c-4.833.083-9.237-.047-14-1 3.088-1.765 4.233-2 8-2"/><path fill="#d9e9f4" d="M950 1025c-1 2-1 2-3.875 3.25L943 1029l-3-2c6.625-3.125 6.625-3.125 10-2"/><path fill="#f7faed" d="m473 728 5 1-2 1-1 3h-3z"/><path fill="#3966aa" d="m470 642 2 5c-3.576 0-5.053-1.088-8-3 3.75-2 3.75-2 6-2"/><path fill="#144077" d="M416 1061c3.375-.125 3.375-.125 7 0l2 2-7 1v-2z"/><path fill="#1a4ea2" d="M264 804c4.084.743 8.02 1.83 12 3-3.82 1.47-6.306.526-10-1z"/><path fill="#eaf1f9" d="m639 748 5 1v5a105 105 0 0 1-5-4z"/><path fill="#d4ecf9" d="M690 740c3.265 1.804 4.89 2.834 7 6l-3 1c-4-4.75-4-4.75-4-7"/><path fill="#eff9fc" d="m682 732 4 4h-4l-1 3c-.625-2.375-.625-2.375-1-5z"/><path fill="#285ea6" d="M530 713c2 1.813 2 1.813 4 4v3c-1.937-.812-1.937-.812-4-2l-1-3z"/><path fill="#d2e6f5" d="M420.188 666.688C422 668 422 668 423 671l-9-3c4-2 4-2 6.188-1.312"/><path fill="#fbf9f2" d="m661 614 3 1v6l-4-1z"/><path fill="#f7faf5" d="M578 594h2v5l-3 1c-.625-1.875-.625-1.875-1-4z"/><path fill="#2357bf" d="M488 592h2c.37 4.554.37 4.554-1.5 6.813L487 600c-.93-2.606-1.15-3.642-.062-6.25z"/><path fill="#e2f4fc" d="m475 588-1 3-8-2c3.35-2.11 5.221-2.05 9-1"/><path fill="#2860a4" d="M535 579h3c-1.25 3.653-1.671 4.78-5 7 .875-4.75.875-4.75 2-7"/><path fill="#d5eef6" d="m474 554 9 2-1 2-7-1z"/><path fill="#e3f2fa" d="m264 1030 9 2-1 2-8-2z"/><path fill="#27467d" d="m976 1007 2 1a466 466 0 0 1-3.375 2.5l-1.898 1.406C971 1013 971 1013 969 1013l1-3h3v-2z"/><path fill="#3866a0" d="m659 770 7 6-3 1v-2l-4-2z"/><path fill="#f5fbf3" d="M560 736h3v2l2 1h-2l1 3-3-1v-3l-2-1z"/><path fill="#dbf3fc" d="m362 697 6 4-1.875.438c-2.158.494-2.158.494-4.125 1.562z"/><path fill="#3c69b4" d="m706 683 2 1-1 6-3 1z"/><path fill="#e9f4fe" d="M362 614c2.595 2.595 2.7 4.399 3 8l-2 2z"/><path fill="#2d5bb1" d="M624 545c2.875-.125 2.875-.125 6 0l2 2c-3.053.981-4.947.981-8 0z"/><path fill="#5da4ca" d="m917 155 3.813.375 2.144.21C925 156 925 156 928 158c-6.4.37-6.4.37-9.437-1.5z"/></svg>